<?xml version="1.0" encoding="UTF-8"?>
<svg xmlns="http://www.w3.org/2000/svg" viewBox="0 0 1000 1000">
  <defs>
    <style>
      .cls-1 {
        fill: #fff;
      }

      .cls-2 {
        fill: #b4edbe;
      }

      .cls-3 {
        fill: #4ac66d;
      }
    </style>
  </defs>
  <g id="Fondo_bl" data-name="Fondo bl">
    <path class="cls-1" d="M752.06,677.36c-39.32,10.31-190.76,30.47-221.34-.88-3.62-3.71-6.39-9.47-8.43-16.82-.28,.28-.58,.56-.88,.85-8.69,8.35-236.85,105.84-365.32,32.79-114.32-65,35.35-145.65,35.35-145.65,4.76-30.75,12.89-58.18,23.61-82.63,10.73-24.46,24.05-45.94,39.2-64.82,110.32-188.32,325.6-152.98,325.6-152.98,1.68-13.69,13.34-24.29,27.49-24.29,15.3,0,27.7,12.4,27.7,27.7,0,3.28-.57,6.43-1.62,9.34,.01,0,199.51,44.79,206.69,250.42,11.69,35.1,17.61,64.98,21.16,82.85,11.65,58.69-69.9,73.82-109.21,84.12Z"/>
  </g>
  <g id="Fondo">
    <path class="cls-2" d="M851.66,552.46c-12.84-66.78-27.22-135.09-63.74-192.45-34.28-53.84-92.6-96.7-155.7-97.53,3.03-6.31,4.05-13.55,2.25-20.34-4.03-15.24-21.51-25.48-36.78-21.53l-.6,.16c-15.18,4.26-25.14,21.91-20.95,37.11,4.19,15.2,21.78,25.25,37,21.15,6.99-1.89,12.9-6.61,16.87-12.64l7.26,2.5c-9.58,8.16-12.36,21.98-14.39,34.58-14.65,90.71-29.33,181.8-30.69,273.67-.46,30.75,1.71,64.45,22.52,87.08,30.67,33.37,84.19,26.21,128.43,16.39,22.77-5.05,45.87-10.22,66.41-21.27,20.54-11.04,38.57-28.91,44.41-51.49,4.67-18.05,1.23-37.09-2.29-55.4Z"/>
    <path class="cls-2" d="M590.57,276.85c-2.55-11.61-17.84-20.5-26.68-12.56l-3.36,2.22c-56.52,3.29-106.14,41.59-138.24,88.22-32.1,46.63-49.82,101.36-68.91,154.65-10.13,28.28-24.22,59.81-52.89,68.76-20.55,6.41-42.9-1.09-61.69-11.59-5.02-2.81-10.13-5.91-15.85-6.49-5.72-.59-12.28,2.23-13.85,7.76-.85,2.99-.14,5.82,1.42,8.39-27.26,4.48-45.91,35.91-41.11,63.61,5.03,29.05,29.93,51.66,57.71,61.5,27.79,9.84,58.16,8.97,87.49,6.09,47.08-4.62,93.56-14.07,139.59-24.97,12.85-3.04,26.02-6.36,36.75-14.05,3.78-2.71,7.2-6.09,9.94-9.91,.7-.02,1.4-.03,2.1-.06,3.76-.14,7.75-.4,10.82-2.58,5.54-3.94,5.59-11.98,5.18-18.76-6.68-111.76,15.37-225.12,63.47-326.23,5.1-10.73,10.65-22.4,8.1-34.01Z"/>
  </g>
  <g id="Vector">
    <path class="cls-3" d="M607.34,288.34c-20.79,0-37.71-16.92-37.71-37.71s16.92-37.71,37.71-37.71,37.71,16.92,37.71,37.71-16.92,37.71-37.71,37.71Zm0-55.41c-9.76,0-17.71,7.94-17.71,17.71s7.94,17.71,17.71,17.71,17.71-7.94,17.71-17.71-7.94-17.71-17.71-17.71Z"/>
    <path class="cls-3" d="M610.29,703.31c-44.74,0-73.86-6.65-86.73-19.85-8.94-9.17-14.04-26.51-15.57-53.03-1.18-20.48-.26-46.52,2.74-77.4,5.48-56.33,16.4-113.89,22.41-138.84,31.96-132.74,64.32-145.18,73.48-145.83l1.42,19.95c.79-.06,1.18-.18,1.19-.18-.28,.09-27.62,10.2-56.64,130.75-5.88,24.4-16.57,80.78-21.95,136.09-8.79,90.37,3.31,110.5,7.23,114.52,5.09,5.21,24.99,16.92,99.72,13.06,47.45-2.45,94.01-10.17,111.92-14.87,3.15-.83,6.57-1.68,10.18-2.59,50.92-12.76,99.94-28.66,91.76-69.92l-.05-.26c-11.87-59.81-48-241.82-227.35-316.5l7.69-18.46c80.7,33.6,143.4,91.84,186.37,173.11,34.51,65.27,46.94,127.88,52.91,157.96l.05,.26c5.57,28.08-6.1,50.85-34.68,67.7-22.17,13.07-50.87,20.26-71.83,25.51-3.54,.89-6.89,1.73-9.97,2.53-22.18,5.82-71.62,13.2-115.96,15.49-10.05,.52-19.5,.78-28.34,.78Z"/>
    <path class="cls-3" d="M273.34,729.92c-2.57,0-5.12-.03-7.64-.08-45.16-.94-83.7-10.3-114.54-27.84-32.18-18.3-48.36-40.09-48.08-64.76,.53-46.58,61.98-85.8,79.26-95.92,11.16-66.42,38.78-122.86,82.13-167.83,35.39-36.7,81.2-65.75,136.16-86.35,92.97-34.83,178.94-33.42,182.55-33.35l-.43,20c-.85-.02-86.24-1.35-175.66,32.29-117.27,44.12-186.3,124.74-205.21,239.67,4.38,6.95,19.83,28.05,57.21,49.3,42.45,24.13,122.44,53.29,262.39,55.21,4.55,.06,8.53,3.18,9.68,7.58,1.14,4.4-.8,9.05-4.74,11.33-5.29,3.03-64.81,30-141.21,47.13-40.33,9.04-77.91,13.61-111.85,13.61Zm-85.21-168.79c-23.46,14.41-64.73,46-65.06,76.36-.18,16.84,12.59,32.7,37.97,47.13,63.98,36.38,154.64,26.75,219.43,12.26,37.16-8.31,70.66-19.22,95.15-28.25-46.14-2.75-88.24-8.72-125.62-17.85-39.83-9.72-74.49-23.05-103-39.6-33.49-19.44-50.88-38.97-58.86-50.05Z"/>
    <path class="cls-3" d="M262.88,405.26l-17.26-10.11c25.96-44.31,59.8-80.2,100.6-106.68,32.6-21.16,69.63-36.35,110.07-45.14,68.68-14.94,122.9-6.34,125.17-5.97l-3.23,19.74c-.53-.09-53.31-8.37-118.4,5.93-86.54,19.01-152.8,66.87-196.95,142.24Z"/>
    <path class="cls-3" d="M830.12,510.74c-2.86-81.78-36.95-147.1-101.33-194.15-48.54-35.47-97.07-46.75-97.56-46.86l4.39-19.51c2.12,.48,52.49,12.08,104.34,49.76,30.58,22.23,55.29,48.95,73.42,79.42,22.67,38.08,35.03,82.04,36.73,130.65l-19.99,.7Z"/>
    <path class="cls-3" d="M420.58,630.48c-.11,0-.23,0-.34-.01-2.75-.19-4.84-2.57-4.65-5.33,8.52-125.86,59.03-247.41,142.23-342.24,1.82-2.08,4.98-2.28,7.06-.46s2.28,4.98,.46,7.06c-81.75,93.19-131.39,212.64-139.77,336.32-.18,2.64-2.38,4.66-4.98,4.66Z"/>
    <path class="cls-3" d="M320.36,593.75c-.38,0-.77-.04-1.16-.14-2.69-.64-4.35-3.33-3.71-6.02,24.17-101.9,80.17-196.8,157.69-267.23,2.04-1.86,5.21-1.71,7.06,.34,1.86,2.04,1.71,5.21-.34,7.06-76.04,69.08-130.97,162.18-154.68,262.13-.55,2.3-2.6,3.85-4.86,3.85Z"/>
    <path class="cls-3" d="M228.7,543.41c-.68,0-1.37-.14-2.03-.43-2.52-1.12-3.66-4.08-2.54-6.6,48.15-108.19,138.57-196.08,248.08-241.14,2.55-1.05,5.47,.17,6.53,2.72,1.05,2.55-.17,5.48-2.72,6.53-107.15,44.09-195.63,130.1-242.75,235.96-.83,1.86-2.66,2.97-4.57,2.97Z"/>
    <path class="cls-3" d="M519.28,403.99c-.21,0-.43-.01-.65-.04-55.39-7.19-109.03-27.68-155.11-59.25-2.28-1.56-2.86-4.67-1.3-6.95s4.67-2.86,6.95-1.3c44.78,30.68,96.91,50.59,150.75,57.58,2.74,.36,4.67,2.86,4.31,5.6-.33,2.52-2.48,4.36-4.95,4.36Z"/>
    <path class="cls-3" d="M492.43,517.21c-.26,0-.52-.02-.79-.06-82.41-13.06-162.19-45.12-230.72-92.72-2.27-1.58-2.83-4.69-1.25-6.96,1.57-2.27,4.69-2.83,6.96-1.25,67.3,46.74,145.65,78.23,226.58,91.06,2.73,.43,4.59,2.99,4.16,5.72-.39,2.46-2.52,4.22-4.93,4.22Z"/>
    <path class="cls-3" d="M575.28,667.3c-1.8,0-3.54-.98-4.44-2.69-12.33-23.62-12.25-51-11.12-77.02,4.04-92.76,18.11-185.32,41.82-275.09,.71-2.67,3.43-4.27,6.11-3.56,2.67,.71,4.26,3.44,3.56,6.11-23.53,89.09-37.49,180.93-41.5,272.98-1.07,24.66-1.19,50.54,9.99,71.96,1.28,2.45,.33,5.47-2.12,6.75-.74,.39-1.53,.57-2.31,.57Z"/>
    <path class="cls-3" d="M704.59,664.57c-2.72,0-4.95-2.18-5-4.91-2.19-118.85-23.06-236.06-62.02-348.36-.91-2.61,.48-5.46,3.08-6.36,2.61-.91,5.46,.48,6.36,3.08,39.31,113.3,60.37,231.55,62.58,351.46,.05,2.76-2.15,5.04-4.91,5.09-.03,0-.06,0-.09,0Z"/>
    <path class="cls-3" d="M821.97,636.83c-2.68,0-4.9-2.13-4.99-4.83-4.15-122.62-63.18-242.37-157.91-320.34-2.13-1.75-2.44-4.91-.68-7.04,1.75-2.13,4.9-2.44,7.04-.68,96.91,79.77,157.3,202.28,161.55,327.72,.09,2.76-2.07,5.07-4.83,5.17-.06,0-.12,0-.17,0Z"/>
    <path class="cls-3" d="M627.19,594.95c-27.37,0-54.72-1.87-81.84-5.63-2.74-.38-4.65-2.9-4.27-5.64,.38-2.74,2.9-4.66,5.64-4.27,92.82,12.87,188.59,3.19,276.96-28,2.6-.92,5.46,.45,6.38,3.05,.92,2.6-.45,5.46-3.05,6.38-64.05,22.61-131.93,34.11-199.82,34.11Z"/>
    <path class="cls-3" d="M639.18,502.14c-28.72,0-57.43-2.36-85.75-7.1-2.72-.46-4.56-3.03-4.11-5.76,.46-2.72,3.04-4.56,5.76-4.11,78.86,13.21,160.87,7.56,237.17-16.35,2.64-.82,5.44,.64,6.27,3.28,.83,2.64-.64,5.44-3.28,6.27-50.39,15.79-103.24,23.77-156.06,23.77Z"/>
    <path class="cls-3" d="M238.44,697.73c-3,0-5.99-.07-8.98-.22-2.76-.13-4.89-2.48-4.75-5.23,.13-2.76,2.46-4.87,5.23-4.75,36.85,1.77,74.37-8.03,105.65-27.61,2.34-1.47,5.42-.76,6.89,1.59,1.46,2.34,.75,5.43-1.59,6.89-30.45,19.06-66.51,29.34-102.45,29.34Z"/>
    <path class="cls-3" d="M169.8,670.08c-2,0-3.89-1.21-4.66-3.19-1-2.57,.27-5.47,2.84-6.47l88.1-34.32c2.57-1,5.47,.27,6.47,2.84,1,2.57-.27,5.47-2.84,6.47l-88.1,34.32c-.6,.23-1.21,.34-1.81,.34Z"/>
    <path class="cls-3" d="M141.78,643.92c-1.02,0-2.05-.31-2.94-.96-2.23-1.62-2.73-4.75-1.1-6.99,15.75-21.65,38.32-38.52,63.54-47.5,2.6-.92,5.46,.43,6.39,3.03,.93,2.6-.43,5.46-3.03,6.39-23.34,8.31-44.23,23.93-58.8,43.96-.98,1.34-2.5,2.06-4.05,2.06Z"/>
    <path class="cls-3" d="M321.36,692.98c-64.29,0-127.96-37.64-157.96-94.66-1.29-2.44-.35-5.47,2.1-6.75,2.44-1.28,5.47-.35,6.75,2.1,30.12,57.24,96.21,93.79,160.68,88.88,2.75-.22,5.16,1.85,5.36,4.61,.21,2.75-1.85,5.16-4.61,5.36-4.1,.31-8.22,.47-12.32,.47Z"/>
    <path class="cls-3" d="M737.34,376.77c-.11,.03-.22,.06-.33,.08l-1.97,.45c-28.86,6.54-58.73,9.83-88.56,9.83-23.01,0-46-1.96-68.49-5.88-2.72-.48-4.54-3.07-4.07-5.79,.48-2.72,3.07-4.54,5.79-4.06,48.73,8.5,99.9,7.52,148.33-2.8l6.66-1.45h.01l.45-.1c.12-.03,.23-.04,.35-.05,2.3-.23,4.52,1.18,5.24,3.45,.02,.07,.04,.13,.06,.2,.73,2.65-.82,5.4-3.47,6.12Z"/>
  </g>
</svg>