<?xml version="1.0" encoding="UTF-8"?>
<svg xmlns="http://www.w3.org/2000/svg" viewBox="0 0 1000 1000">
  <defs>
    <style>
      .cls-1 {
        fill: #f9ddbb;
      }

      .cls-2 {
        fill: #fff;
      }

      .cls-3 {
        fill: #b4edbe;
      }

      .cls-4 {
        fill: #e2a84d;
      }
    </style>
  </defs>
  <g id="Fondo_bl" data-name="Fondo bl">
    <path class="cls-2" d="M920.87,636.83l-7.54,37.59c-14.04,69.91-213.81,88.77-446.2,42.11-84.82-17.02-162.26-40.42-225.73-66.68-11.93-4.93-23.37-9.96-34.27-15.09-89.98-42.2-143.33-89.69-135.38-129.29l7.55-37.6c4.49-22.38,28.02-39.52,65.55-50.96,20.62-6.28,45.47-10.84,73.71-13.61,2.16-3.85,4.47-7.84,6.95-11.95,4.36-7.25,9.23-14.85,14.62-22.65,52.08-75.45,152.67-168.78,318.59-129.54,142.3,33.65,202.49,127.79,227.71,207.84,2.24,7.08,4.19,14.06,5.91,20.87,4.29,17.03,7.08,33.06,8.86,47.26,80.42,40.25,127.15,84.46,119.67,121.7Z"/>
    <path class="cls-2" d="M540.33,213.06c2.4-11.98,16.68-19.21,31.89-16.16,15.21,3.05,25.59,15.24,23.18,27.22-2.4,11.97-16.68,19.21-31.89,16.16-15.21-3.06-25.59-15.24-23.18-27.22Z"/>
    <path class="cls-2" d="M121.15,425.75s83.74,125.91,92.53,170.95h0"/>
    <line class="cls-2" x1="240.13" y1="368.7" x2="240.12" y2="368.69"/>
    <path class="cls-2" d="M413.86,502.71s-.23-.1-.67-.29"/>
  </g>
  <g id="Fondo">
    <g>
      <g>
        <path class="cls-3" d="M538.82,523.69c1.89-.16,3.8-.33,5.72-.52-1.88-.2-3.81-.06-5.72,.52Z"/>
        <path class="cls-3" d="M538.82,526.19c1.91-.16,3.81-.34,5.72-.52,.68-.06,1.27-.24,1.77-.73,.43-.43,.76-1.15,.73-1.77s-.24-1.32-.73-1.77l-.51-.39c-.39-.23-.81-.34-1.26-.34-2.13-.22-4.33,0-6.38,.61-.61,.18-1.17,.6-1.49,1.15s-.45,1.33-.25,1.93,.57,1.19,1.15,1.49,1.27,.45,1.93,.25c.71-.21,1.43-.37,2.17-.47l-.66,.09c1.18-.16,2.37-.17,3.55-.05v-5c-1.9,.18-3.81,.35-5.72,.52-.67,.06-1.28,.24-1.77,.73-.43,.43-.76,1.15-.73,1.77s.24,1.32,.73,1.77c.46,.43,1.11,.79,1.77,.73Z"/>
      </g>
      <path class="cls-1" d="M870.21,555.01c-19.62-17.54-41.13-35.21-67.1-39.47-2.19-.36-4.38-.61-6.58-.78-3.17-14.67-6.34-29.35-9.51-44.02-2.2-10.2-4.78-21.02-11.07-29.06,.11-4.91-1.4-10.17-3.11-14.86-31.95-87.83-106.08-158.71-194.27-188.93,8.53-3.47,14.93-12.19,14.71-21.41-.24-9.86-8.73-19.09-18.59-19.35l-14.3-4.13c-8.61-.5-16.64,6.46-18.6,14.86-1.72,7.37,.75,15.29,5.55,21.19-3.93-.88-7.87-1.69-11.84-2.41l-1.96,8.76c50.07,22.55,92.54,61.58,119.24,109.56,12.84,23.07,22.23,50.2,15.3,75.68-6.26,23.02-25.14,40.95-46.46,51.66-21.32,10.72-56.94,20.43-80.39,24.85,23.98,.77,49.39-.64,75.08-3.8l1.11,2.78c-17.69,19.85-46.11,24.52-72.89,27.05,9.56,1.02,17.97,11.13,17.44,21.25-.63,12.12-10.81,22.11-22.29,26.05-.72,.25-1.44,.47-2.16,.68l-67.42-2.49c-2.67-.1-5.48-.17-7.87,1.03-6.62,3.33-26.54-6.83-20.74-2.21,5.8,4.61,31.3,18.86,37.69,22.61,7.48,4.4,19.71,10.63,21.45,17.83,1.67,6.88-3.35,13.98-9.73,17.04-6.38,3.06-13.76,3.03-20.84,2.81-55.5-1.75-85.85-3.77-134.09-9.8-9.17-1.15-55.04-5.37-64.24-4.52-9.2,.84-5.36,2.91-6.61,12.06-.5,3.66-5.01-8.58-6.57-5.23-1.01,2.18-3.89,1.71-7.66-.13,0-.06,.01-.12,.02-.18,.61-8.3-2.2-16.44-5.18-24.22-22.38-58.44-56.32-111.63-90.02-164.35-3.4-5.32-7.05-10.88-12.66-13.77-5.61-2.9-13.75-1.91-16.62,3.71l-3.81,1.14c20.23,32.93,39.26,66.59,58.28,100.23,11.99,21.2,24.23,43.17,26.84,67.39,.16,1.48,.28,2.96,.38,4.45-58.29-25.66-96.99-51.58-132.36-107.8l.76-5.9c-10.71,27.82-.36,60.33,18.88,83.1,19.25,22.77,46.09,37.59,72.78,50.86,189.23,94.09,404.16,135.18,614.92,119.75,31.05-2.27,62.88-6,90.36-20.63,27.48-14.63,49.94-42.52,49.56-73.65-.43-34.46-27.13-62.3-52.83-85.27Z"/>
    </g>
  </g>
  <g id="Vector">
    <path class="cls-4" d="M711.88,714.59c-71.88,0-154.41-8.82-239.18-25.84-113.33-22.75-217.33-57.49-292.84-97.79-37.27-19.9-65.76-40.19-84.68-60.32-21.15-22.51-29.8-44.29-25.69-64.73,4.07-20.29,20.24-36.95,48.06-49.51,24.87-11.23,58.52-18.98,100.03-23.04l1.95,19.9c-39.33,3.85-70.87,11.04-93.75,21.37-21.61,9.76-33.95,21.61-36.68,35.22-2.76,13.74,4.19,29.58,20.66,47.1,17.42,18.53,44.17,37.5,79.52,56.37,73.83,39.42,175.89,73.45,287.36,95.83,111.47,22.38,218.75,30.37,302.08,22.51,39.89-3.77,71.89-10.93,95.12-21.31,21.95-9.8,34.47-21.74,37.23-35.47,6.12-30.48-36.62-71.89-114.34-110.79l8.95-17.88c41.78,20.91,73.87,42.39,95.38,63.84,24.01,23.94,33.97,47.08,29.62,68.77-4.1,20.44-20.48,37.2-48.68,49.8-25.22,11.26-59.33,18.99-101.39,22.96-21.48,2.03-44.5,3.03-68.72,3.03Z"/>
    <path class="cls-4" d="M704.34,752.18c-71.88,0-154.41-8.82-239.18-25.84-113.33-22.75-217.33-57.48-292.84-97.79-37.27-19.9-65.76-40.19-84.68-60.31-21.15-22.51-29.8-44.28-25.69-64.73l7.55-37.59,19.61,3.94-7.55,37.59c-2.76,13.73,4.19,29.58,20.66,47.09,17.42,18.53,44.17,37.5,79.52,56.37,73.84,39.42,175.89,73.45,287.36,95.83,111.47,22.38,218.75,30.37,302.08,22.51,39.89-3.76,71.89-10.93,95.12-21.31,21.95-9.8,34.48-21.74,37.23-35.47l7.55-37.59,19.61,3.94-7.55,37.59c-4.1,20.45-20.49,37.2-48.69,49.8-25.22,11.26-59.33,18.99-101.4,22.96-21.48,2.03-44.49,3.03-68.71,3.03Z"/>
    <path class="cls-4" d="M706.34,610.12c-.08,0-.16,0-.25,0-60.45-.02-138.86-9.09-220.79-25.54s-157.77-38.35-213.54-61.65c-62.67-26.19-90.94-49.81-86.45-72.22l.14-.71,.24-.68c1.03-2.9,25.95-71.76,84.45-133.8,34.59-36.68,73.75-63.22,116.38-78.86,53.32-19.57,112.03-22,174.49-7.24,62.3,14.73,114.42,42.15,154.91,81.49,32.42,31.5,57.4,70.58,74.26,116.17,28.56,77.24,23.91,145.67,23.7,148.54l-.05,.62-.12,.61c-4.49,22.38-39.62,33.26-107.38,33.26ZM204.87,455.13c-.13,5.46,12.62,23.43,74.6,49.34,54.59,22.81,129.09,44.3,209.77,60.5,80.68,16.2,157.7,25.13,216.86,25.15,.07,0,.15,0,.22,0,67.24,0,85.79-11.72,87.66-16.78,.42-7.89,2.82-71.13-22.81-139.99-36.2-97.26-108.45-159.32-214.77-184.47-106.3-25.14-197.72,1.9-271.72,80.36-52.16,55.31-76.75,117.72-79.83,125.89Zm589.07,119.03h0Z"/>
    <path class="cls-4" d="M570.36,250.96c-2.89,0-5.84-.29-8.82-.88-20.59-4.13-34.51-21.62-31.02-38.99,3.49-17.36,23.08-28.13,43.67-24,9.55,1.92,18.01,6.74,23.84,13.58,6.32,7.41,8.93,16.67,7.18,25.41h0c-2.98,14.85-17.75,24.88-34.84,24.88Zm-5.12-44.76c-7.61,0-14.04,3.52-15.11,8.83-1.29,6.44,5.74,13.51,15.35,15.44,9.61,1.93,18.83-1.88,20.12-8.32h0c.74-3.68-1.43-6.9-2.79-8.5-2.89-3.39-7.46-5.92-12.55-6.94-1.7-.34-3.38-.5-5.01-.5Z"/>
    <path class="cls-4" d="M246.2,651.22l-9.62-2.74,9.92-34.87c-38.91-105.83-104.96-192.79-105.63-193.66l7.94-6.08c.68,.89,68.27,89.83,107.64,197.83l.56,1.52-10.81,37.99Z"/>
    <path class="cls-4" d="M212.06,635.61l-9.86-1.7,6.39-37.13c-9.42-44.33-90.79-167.02-91.61-168.26l8.33-5.54c3.44,5.17,84.4,127.26,93.28,172.77l.18,.9-6.71,38.96Z"/>
    <path class="cls-4" d="M482.63,531.75c-5.06,0-10.16-.03-15.3-.08-107.71-1.18-195.5-14.54-196.37-14.67l1.52-9.88c.87,.13,88.06,13.39,195.09,14.56,98.42,1.07,234.24-8.15,322.29-58.14l4.94,8.7c-39.85,22.63-92.26,39.04-155.78,48.79-46.49,7.13-99.04,10.74-156.39,10.74Z"/>
    <path class="cls-4" d="M401.81,529.34c-1.07-.34-26.52-8.67-61.61-29.51-32.34-19.19-79.18-53.07-118.68-105.48l7.99-6.02c38.44,51,84.04,84.02,115.52,102.74,34.19,20.33,59.6,28.67,59.86,28.75l-3.08,9.51Z"/>
    <path class="cls-4" d="M445.58,507.7c-55.84,0-94.93-2.68-95.47-2.71l.7-9.98c.74,.05,75.26,5.14,165.64,1.18,119.19-5.23,211.73-23.77,267.62-53.6l4.71,8.82c-58.04,30.98-149.55,49.41-272,54.77-25.4,1.11-49.56,1.52-71.2,1.52Z"/>
    <path class="cls-4" d="M411.9,507.31c-1.02-.43-25.37-10.86-59.35-32.82-31.33-20.24-76.94-54.48-116.31-102.64l7.74-6.33c73.71,90.16,170.85,132.17,171.82,132.58l-3.91,9.2Z"/>
  </g>
</svg>