<?xml version="1.0" encoding="UTF-8"?>
<svg xmlns="http://www.w3.org/2000/svg" viewBox="0 0 1000 1000">
  <defs>
    <style>
      .cls-1 {
        fill: #fff;
      }

      .cls-2 {
        fill: #bbf5ff;
      }

      .cls-3 {
        fill: #57c7e5;
      }
    </style>
  </defs>
  <g id="Fondo_bl" data-name="Fondo bl">
    <path class="cls-1" d="M967.14,700.67c-109.27,54.99-211.02,75.45-341.7,75.45-222.81,0-424.6-90.03-570.96-235.7,0,0,89.18-9.3,162.61-70.79-4.82-1.97-8.27-3.4-10.12-4.17-.92-.38-1.39-1.38-1.12-2.34,6.93-24.41,32.35-67.56,37.67-76.45,.55-.91,1.71-1.21,2.63-.69,1.82,1.03,3.68,2.07,5.59,3.11,67.99-100.3,181.44-160.14,301.99-146.22,129.94,15,232.33,111.55,269.87,238.13,12.71-11.46,27.91-21.66,43.19-23.73,0,0,26.68,44.64,14.88,138.78,0,0-10.88,.61-26.5-.84,44.93,67.93,111.97,105.46,111.97,105.46Z"/>
  </g>
  <g id="Fondo">
    <path class="cls-2" d="M461.92,247.69c60.75-11.85,123.07,27.41,153.81,81.14,30.74,53.72,35.33,118.55,31.18,180.3,39.47-.2,78.95-.4,118.42-.61,18.68-.1,40.99-2.26,49.81-18.72,6.4-11.94,2.68-26.63-1.96-39.36-44.6-122.37-168.65-211.33-298.85-214.33l-52.42,11.58Z"/>
    <path class="cls-2" d="M683.84,757.41c91.05,16.62,188.05-1.68,266.72-50.43-30.93-50.62-74-93.77-124.56-124.8,5.35,19.37,10.71,38.74,16.06,58.11-18.97-14.19-50.88-3.1-56.96,19.8-6.87-15.58-13.92-31.46-25.34-44.09-11.42-12.63-28.16-21.7-45.06-19.6-10.15,36.95-20.31,73.89-30.46,110.84-8.85-10.17-17.71-20.34-26.56-30.51-8.12,8.47-19.64,13.6-31.37,13.97,3.71-26.17,7.42-52.33,11.12-78.5-17.4,26.42-60.57,30.15-82.23,7.09-9.24-9.83-14.38-22.84-22.9-33.3-33.95-41.7-102.21-27.03-149.12-53.32l-73.06-17.38c73.02,22.79,140.13,64.28,193.14,119.42,13.41,13.95,26.04,28.84,41.48,40.5,0,0,76.09,70.72,139.09,82.22Z"/>
  </g>
  <g id="Vector">
    <path class="cls-3" d="M814.02,483.85c-37.47-126.34-140.09-217.03-261.43-231.04-112.34-12.96-224.45,41.4-292.57,141.91l-16.56-11.22c34.92-51.52,81.64-92.77,135.12-119.3,55.22-27.39,116.18-38.2,176.3-31.25,64.89,7.49,125.45,35.06,175.12,79.72,48.26,43.39,83.94,100.62,103.19,165.5l-19.17,5.69Z"/>
    <path class="cls-3" d="M690.33,607.97c-5.64,0-11.16-.37-16.3-1.24-5.61-.95-10.39-4.34-13.13-9.29-5.12-9.29-17.28-34.96-19.54-72.54-.47-7.75,4.06-15,11.25-18.04,13.09-5.52,39.78-14.08,71.39-9.35,6.89,1.03,12.53,5.82,14.7,12.5,4.5,13.83,15.23,48.42,17.55,71.01,.93,9.06-5.06,17.54-13.93,19.72-12.21,3-32.83,7.23-52,7.23Zm-12.27-20.84c19,2.98,46-2.56,58.15-5.48-2.44-20.75-12.62-53.4-16.21-64.51-26.34-3.66-49.04,3.83-58.59,7.73,2.13,32.01,12.06,53.74,16.66,62.25Z"/>
    <path class="cls-3" d="M783.49,598.9c-.45,0-.9-.02-1.36-.06-20.38-1.85-34-4.52-40.48-7.93l9.32-17.7c2.83,1.49,12.57,3.62,28.3,5.26,2.49-13.89,2.81-37.41,2.2-57.06-11.96-5.13-28.85-7.37-37.36-8.21l-4.83,8.81-17.53-9.62,6.51-11.86c2.78-5.06,8.29-8.03,14.04-7.57,9.84,.79,34.51,3.53,51.07,11.95,4.73,2.4,7.79,7.2,7.99,12.53,.55,14.85,1.31,51.46-3.67,70.51-1.71,6.53-7.55,10.97-14.18,10.97Z"/>
    <path class="cls-3" d="M875.18,606.19c-16.19,0-56.93-2.03-90.38-20.59l9.71-17.49c27.67,15.35,62.51,17.78,78.24,18.03,6.62-64.24-5.58-102.94-11.55-117.35-25.57,8.29-52.62,41.42-61.56,54.6l-16.56-11.21c1.63-2.41,40.47-59.16,82.39-64.82l6.54-.88,3.38,5.66c1.16,1.94,28.31,48.71,16.22,145.16l-1.04,8.28-8.33,.46c-.45,.03-2.97,.15-7.05,.15Z"/>
    <path class="cls-3" d="M583.95,648.1l-3.22-1.07c-17.8-5.93-35.99-30.52-38.01-33.3l-.73-1.01-.46-1.16c-23.68-59.63-9.64-140.27-9.03-143.68l1.68-9.39,9.46,1.23c40.42,5.27,114.56,45.88,117.7,47.61l-9.64,17.52c-.67-.37-62.44-34.21-100.94-43.45-2.83,22.62-7.5,79.01,8.91,121.59,5.75,7.68,16.29,19.37,24.55,23.8,12.59-4.67,55.35-21.42,78.94-41.75l13.05,15.15c-30.66,26.41-86.66,45.97-89.03,46.79l-3.21,1.11Z"/>
    <path class="cls-3" d="M691.27,714.99c-2.39,0-4.75-.82-6.64-2.38-9.3-7.63-18.73-16.88-24.02-22.25l-31.77,9.18c-3.3,.95-6.86,.22-9.51-1.95-2.66-2.17-4.08-5.52-3.8-8.94,3.61-43.32,20.25-81.75,20.96-83.37l18.32,8.01c-.14,.32-12.49,28.93-17.69,63.03l29.57-8.54,4.19,4.43c.09,.09,6.04,6.38,13.74,13.64,5.07-29.56,14.94-78.83,26.86-96.29l16.52,11.28c-9.19,13.47-20.13,64-26.4,105.26-.57,3.71-3.09,6.84-6.59,8.18-1.21,.46-2.47,.69-3.72,.69Zm6.03-17.85s.01,.01,.02,.02c0,0-.01-.01-.02-.02Z"/>
    <path class="cls-3" d="M540.34,585.18c-108.21-16.11-314.09-100.87-337.21-110.48-5.59-2.32-8.56-8.47-6.91-14.3,7.11-25.04,31.43-66.69,38.72-78.86,3.37-5.62,10.47-7.48,16.16-4.23,87.76,49.99,288.8,108.71,290.82,109.29l-5.58,19.21c-8.13-2.36-195.58-57.11-288.2-107.27-7.86,13.5-23.28,40.99-30.45,60.54,42.68,17.53,226.8,91.62,325.59,106.33l-2.95,19.78Z"/>
    <path class="cls-3" d="M783.07,671.77c-.39,0-.79-.02-1.19-.07-4.18-.47-7.69-3.38-8.94-7.4-9.63-31.1-44.96-64.33-45.31-64.66l13.63-14.63c1.34,1.25,27.75,26.05,43.09,55.18l10.1-17.45,6.62,.87c5.59,.74,19.23,2.71,31.43,5.76-4.72-14.07-11.29-27.15-18.54-32.35l11.66-16.25c18.88,13.55,28.04,47.33,31.1,61.22,.94,4.24-.77,8.57-4.36,11.03-3.59,2.46-8.26,2.49-11.89,.07-4.12-2.75-20.4-6.37-35.45-8.7l-12.79,22.09c-1.91,3.3-5.42,5.29-9.17,5.29Z"/>
    <path class="cls-3" d="M625.44,786.12c-110.27,0-217.27-21.54-318.03-64.01-97.32-41.02-184.79-99.77-259.98-174.6-2.74-2.72-3.66-6.78-2.37-10.42,1.29-3.64,4.55-6.21,8.39-6.62,.86-.09,87.15-9.83,157.22-68.51l12.84,15.33c-54.49,45.63-116.6,63.33-147.86,69.74,149.1,141.43,343.56,219.08,549.8,219.08,127.67,0,222.16-19.41,321.18-66.54-23.07-15.52-66.89-49.11-99.79-98.85l16.68-11.03c42.98,64.98,107.87,101.88,108.52,102.25,3.22,1.81,5.19,5.25,5.1,8.95-.08,3.7-2.2,7.05-5.5,8.71-55,27.68-109.04,47.04-165.2,59.19-54.66,11.82-112.17,17.33-180.99,17.33Z"/>
  </g>
</svg>