<?xml version="1.0" encoding="UTF-8"?>
<svg xmlns="http://www.w3.org/2000/svg" viewBox="0 0 1000 1000">
  <defs>
    <style>
      .cls-1 {
        fill: #e54c4c;
      }

      .cls-2 {
        fill: #fff;
      }

      .cls-3 {
        fill: #ffc7c7;
      }
    </style>
  </defs>
  <g id="Fondo_bl" data-name="Fondo bl">
    <g>
      <path class="cls-2" d="M827.06,555.37c0,11.45-.62,22.76-1.83,33.89l-10.3-120.23c7.9,27.41,12.13,56.38,12.13,86.34Z"/>
      <path class="cls-2" d="M869.08,668.11c0,20.15-14.92,36.83-34.32,39.57l-1.03,24.63c-.18,4.17-3.41,7.56-7.57,7.93-10.65,.95-32.59,2.69-62.84,3.93-114.13,4.68-346.62,2.27-538.07-76.06-16.24-6.64-32.18-13.83-47.73-21.61-3.18-1.6-4.98-5.06-4.48-8.59l4.04-28.77h0c-11.26-7.08-18.75-19.6-18.75-33.87,0-9.12,3.05-17.52,8.2-24.25,5.14-6.72,12.37-11.76,20.71-14.16l5.17-36.84c.75-5.36,6.34-8.58,11.36-6.54,1.8,.73,3.84,1.55,6.11,2.45,8.07-41.78,24.51-80.58,47.49-114.6l-.05,.04c-20.67-70.78-2.05-147.52,7.3-186.19,2.69-11.12,17.37-13.68,23.56-4.06,20.94,32.6,56.11,64.7,84.39,87.57l-.02,.02c36.88-19.11,78.07-31.08,121.73-34.04h.01c7.05-.48,14.17-.72,21.35-.72,42.76,0,83.49,8.63,120.58,24.22h.06s-.01,.02-.02,.02c35.78,15.05,68.16,36.57,95.66,63.12,0,0,78.92-52.46,113.63-106.48,5.47-8.5,18.43-6.23,20.81,3.59,9.43,39.02,29.55,121.92-3.58,190.73-10.12,21.02-28.58,39.03-47.85,49.88l10.3,120.23c1.66-.16,3.31-.34,4.97-.52,5.06-.55,9.41,3.53,9.2,8.61l-1.34,31.79c17.77,4.07,31.02,19.98,31.02,38.97Z"/>
    </g>
  </g>
  <g id="Fondo">
    <path class="cls-3" d="M825.05,587.73c-190.81,14.2-384.42-10.43-565.6-71.95l-.24-2.24c17.54-54.68,37.04-109.47,68.77-157.32,31.73-47.86,77.14-88.74,132.3-104.68,10.42-3.01,21.06-5.1,31.82-6.36-4.37,2.86-8.4,6.44-12.18,10.01-17.83,16.9-34.02,35.87-45.24,57.73-11.23,21.85-17.28,46.8-14.33,71.19,2.94,24.39,15.5,48.03,35.79,61.88l2.3-1.69c-9.23-25.74-14.24-53.72-8.94-80.54,8.04-40.71,38.1-72.96,67-102.73,3.42-3.51,7.09-7.73,6.54-12.6-.21-1.86-1-3.45-2.19-4.77,13.49,.12,27,1.37,40.3,3.55,59.98,9.82,116.7,38.68,159.95,81.38-18.19,20.3-28.62,47.87-26.37,75.04,2.25,27.16,17.8,53.34,41.6,66.63,23.79,13.29,55.34,12.41,77.29-3.76,10.8,39.34,14.69,80.57,11.43,121.23Z"/>
    <path class="cls-3" d="M856.32,231.21c-1.42,41.18-2.91,82.83-14.19,122.46s-33.54,77.64-68.35,99.68c-8.84,5.6-19.94,13.51-17.05,23.57,3.15,10.93,18.89,10.53,29.49,6.41,45.85-17.8,79.21-61,91.7-108.57,12.49-47.57,5.8-98.74-11.71-144.69"/>
    <path class="cls-3" d="M280.82,184.4c-3.91,2.11-5.8,6.87-5.72,11.31s1.79,8.68,3.51,12.78c11.16,26.48,24.32,52.11,39.35,76.6,2,3.26,4.14,6.61,7.37,8.65,8.58,5.43,19.58-.63,27.83-6.53,4.57-3.27,9.7-7.84,8.63-13.35-.54-2.77-2.57-4.96-4.52-7-25.64-26.75-51.27-53.5-76.91-80.25"/>
  </g>
  <g id="Vector">
    <path class="cls-1" d="M835.17,590.34l-19.88-2.16c1.18-10.81,1.77-21.85,1.77-32.81,0-28.43-3.95-56.54-11.74-83.57l19.22-5.54c8.31,28.83,12.52,58.81,12.52,89.11,0,11.68-.64,23.44-1.89,34.97Z"/>
    <path class="cls-1" d="M219.7,497.83l-19.64-3.79c29.12-150.7,161.84-260.08,315.58-260.08,83.73,0,163.01,32.02,223.23,90.17l-13.89,14.39c-56.47-54.53-130.81-84.55-209.33-84.55-144.17,0-268.64,102.57-295.94,243.88Z"/>
    <path class="cls-1" d="M691.52,755.63c-127.34,0-312.01-13.6-470.06-78.26l7.57-18.51c187.91,76.88,415.15,80.19,533.87,75.32l.82,19.98c-20.98,.86-45.33,1.47-72.21,1.47Z"/>
    <path class="cls-1" d="M778.98,489.96c-50.6,0-91.77-41.17-91.77-91.77,0-29.8,14.56-57.86,38.95-75.05l.22-.15c.77-.51,77.6-51.96,110.76-103.56,4.71-7.33,12.98-10.99,21.58-9.54,8.51,1.43,15.32,7.79,17.35,16.18l.04,.18c9.84,40.68,30.3,125.32-4.33,197.24-17.65,36.65-59.28,66.47-92.81,66.47Zm-41.4-150.4c-19.02,13.46-30.37,35.37-30.37,58.63,0,39.57,32.19,71.77,71.77,71.77,22.82,0,59.15-22.65,74.79-55.15h0c31.53-65.49,12.2-145.44,2.91-183.87l-.04-.18c-.07-.27-.24-.99-1.24-1.16-.93-.16-1.27,.38-1.43,.63-35.08,54.59-111.66,106.17-116.39,109.32Z"/>
    <path class="cls-1" d="M247.72,384.17c-21.38-73.22-2.12-152.87,7.13-191.14l.05-.2c2.21-9.13,9.33-15.76,18.58-17.33,9.21-1.56,18.06,2.36,23.11,10.21,20.63,32.12,56.13,64.06,82.27,85.21l-12.58,15.55c-27.29-22.07-64.45-55.58-86.52-89.94-.86-1.34-2.09-1.45-2.96-1.3-.74,.12-2.05,.59-2.47,2.31l-.05,.2c-9.53,39.4-27.26,112.74-7.37,180.84l-19.2,5.61Z"/>
    <path class="cls-1" d="M691.52,755.63c-127.34,0-312.01-13.6-470.06-78.26-16.7-6.83-32.99-14.2-48.42-21.92-7.04-3.54-11.01-11.15-9.91-18.94l4.04-28.76,19.81,2.78-3.87,27.58c14.64,7.29,30.09,14.26,45.92,20.74,187.91,76.88,415.15,80.19,533.88,75.33,28.68-1.18,49.98-2.82,60.89-3.77l5.52-131.52c-1.05,.11-2.09,.22-3.14,.32-35.91,3.73-72.76,5.6-110.41,5.6-89.5,0-183.65-10.52-281.19-31.49-112.05-24.09-197.06-55.65-228.4-68.1-1.49-.59-2.88-1.15-4.18-1.67l-4.87,34.69-19.81-2.78,5.17-36.84c.79-5.62,4.06-10.48,8.98-13.32,4.93-2.84,10.77-3.24,16.04-1.1,1.77,.72,3.79,1.53,6.03,2.42,73.1,29.04,333.17,121.53,610.63,92.68,1.68-.16,3.28-.34,4.89-.51,5.34-.58,10.62,1.18,14.52,4.82,3.9,3.65,6.01,8.8,5.79,14.14l-5.67,134.97c-.4,9.15-7.56,16.66-16.67,17.47-10.58,.94-32.87,2.71-63.32,3.96-20.98,.86-45.33,1.47-72.21,1.47Z"/>
    <path class="cls-1" d="M459.8,458.74c-8.53,0-16.75-3.96-22.04-11.08-16.21-21.79-27.74-51.49-31.94-63.25-1.52-4.26-1.98-8.89-1.32-13.39,7.46-50.99,29.99-84.9,47.57-104.37,19.26-21.33,36.91-30.5,37.65-30.88l9.15,17.79c-.16,.08-15.7,8.29-32.58,27.19-22.52,25.23-36.65,56.58-42.01,93.17-.19,1.28-.06,2.58,.36,3.76,3.9,10.91,14.55,38.42,29.15,58.04,1.95,2.62,5.37,3.66,8.52,2.59,16.74-5.68,58.53-21.21,84.96-42.57,1.29-1.05,2.2-2.44,2.62-4.04,6.74-25.8,32.61-111.61,82.48-132.73l7.8,18.42c-42.52,18.01-66.54,102.6-70.93,119.37-1.5,5.76-4.75,10.79-9.4,14.54-27.89,22.54-69.05,38.47-91.1,45.96-2.95,1-5.98,1.49-8.96,1.49Z"/>
    <path class="cls-1" d="M413.79,687.27c-27.55,0-49.97-22.42-49.97-49.97s22.41-49.97,49.97-49.97,49.97,22.42,49.97,49.97-22.41,49.97-49.97,49.97Zm0-79.93c-16.52,0-29.97,13.44-29.97,29.97s13.44,29.97,29.97,29.97,29.97-13.44,29.97-29.97-13.44-29.97-29.97-29.97Z"/>
    <path class="cls-1" d="M198.3,625.23c-27.55,0-49.97-22.42-49.97-49.97s22.41-49.97,49.97-49.97,49.97,22.42,49.97,49.97-22.41,49.97-49.97,49.97Zm0-79.93c-16.52,0-29.97,13.44-29.97,29.97s13.44,29.97,29.97,29.97,29.97-13.44,29.97-29.97-13.44-29.97-29.97-29.97Z"/>
    <path class="cls-1" d="M667.13,718.08c-27.55,0-49.97-22.42-49.97-49.97s22.41-49.97,49.97-49.97,49.97,22.42,49.97,49.97-22.41,49.97-49.97,49.97Zm0-79.93c-16.52,0-29.97,13.44-29.97,29.97s13.44,29.97,29.97,29.97,29.97-13.44,29.97-29.97-13.44-29.97-29.97-29.97Z"/>
    <path class="cls-1" d="M836.16,717.58l-2.8-19.8c14.66-2.07,25.72-14.83,25.72-29.67,0-14.07-9.56-26.09-23.25-29.22l4.47-19.5c22.84,5.23,38.79,25.26,38.79,48.72,0,24.75-18.45,46.02-42.92,49.47Z"/>
  </g>
</svg>