<?xml version="1.0" encoding="UTF-8"?>
<svg xmlns="http://www.w3.org/2000/svg" viewBox="0 0 1000 1000">
  <defs>
    <style>
      .cls-1 {
        fill: #fff;
      }

      .cls-2 {
        fill: #b7a1b7;
      }

      .cls-3 {
        fill: #a5419b;
      }
    </style>
  </defs>
  <g id="Fondo_bl" data-name="Fondo bl">
    <path class="cls-1" d="M662.26,584.06h-.01"/>
    <path class="cls-1" d="M115.46,567.03c-.08,.43-.14,.86-.18,1.3"/>
    <path class="cls-1" d="M815.75,641.41l11.28-47.2c1.05-4.41-1.95-8.6-6.16-9.25l81.84-277.8-.86-.2c.18-.38,.31-.78,.38-1.18,3.88-21.46-139.23-65.29-319.64-97.92-176.75-31.97-323.73-41.31-333.27-21.51l-.51-.06-30.56,292.47c-3.14,.24-5.97,2.45-6.77,5.78l-10.65,44.56h-.01c-50.34,5.74-81.84,18.49-85.35,37.84v.09s-.19,1.3-.19,1.3l-5.3,38.21c-8.61,47.58,155.37,117.07,366.25,155.21,210.89,38.14,388.82,30.48,397.42-17.1l5.49-39.59c3.41-18.88-20.33-41.19-63.39-63.65Zm-153.49-57.35h0Z"/>
    <line class="cls-1" x1="820.87" y1="584.96" x2="811.71" y2="616.05"/>
    <line class="cls-1" x1="218.25" y1="478.76" x2="216.03" y2="500"/>
  </g>
  <g id="Fondo">
    <path class="cls-2" d="M891.06,331.17c2.17-7.45,4.34-14.91,6.51-22.36-2.29,.48-4.61,.92-6.95,1.35-1.02-3.57-2.56-7.02-4.7-10.25-10-15.05-28.74-21.19-46.06-26.32-33.16-9.82-66.31-19.64-99.47-29.46-69.26-20.51-139.34-41.16-211.49-44.58,8.99,4.77,18.15,9.67,25.21,17.01,7.06,7.34,11.78,17.68,9.88,27.69-2.94,15.5-19.74,24.08-35.14,27.49-1.89,.42-3.79,.79-5.7,1.12-29.05-6.88-57.51-13.99-84.79-20.88l-58.24-7.75c65.2,47.52,138.78,83.51,216.32,105.79,23.81,6.84,50.49,14.2,63.1,35.53,8.59,14.53,8.53,32.39,8.22,49.26l-2.59,141.91c49.87,8.77,100.64,12.4,151.25,10.81,24.19-83.07,48.37-166.14,72.56-249.21,.86-2.35,1.56-4.74,2.08-7.15Z"/>
    <path class="cls-2" d="M871.67,721.31c4.74-17.69-2.2-36.89-13.73-51.13-11.56-14.28-27.26-24.52-42.68-34.51,4.38,15.13-7.07,31.2-21.49,37.56-14.42,6.35-30.85,5.46-46.57,4.45-35.98-2.31-71.95-4.61-107.93-6.92l-87.99-8.52,103.5,20.38c6.42,1.26,13.44,2.89,17.36,8.13,4.79,6.4,2.77,16.04-2.6,21.97-5.37,5.93-13.21,8.91-20.89,11.16-63.08,18.46-129.89,.45-195.66-5.05-71.31-13.35-141.58-31.79-209.88-56.26-46.55-16.68-94.99-38.47-121.36-80.3l-7.06-1.4c-12.84,15.66-9.38,40.06,2.7,56.31,12.08,16.26,30.74,26.12,49.05,34.77,157.65,74.48,334.36,97.96,508.41,108.33,46.03,2.74,92.37,4.63,138.14-.96,16.39-2,33.43-5.29,46.32-15.61,12.43-9.96,19.41-28.34,12.34-42.39Z"/>
    <path class="cls-2" d="M827.03,594.21l-17.38,72.7c-.72,3.03-3.22,5.31-6.31,5.74-72.92,10.13-190.95,4.09-321.62-19.55-116.05-20.99-217.9-51.47-284.59-82.58-3.26-1.52-4.99-5.13-4.15-8.62l18.5-77.36c1.12-4.69,6.27-7.14,10.62-5.07,66.59,31.71,170.06,62.93,288.26,84.31,123.12,22.26,235.02,28.92,308.54,21.13,5.19-.55,9.35,4.22,8.13,9.29Z"/>
  </g>
  <g id="Vector">
    <path class="cls-3" d="M723.43,756.43c-70.25,0-155.24-8.47-243.49-24.43-102.7-18.58-197.72-45.1-267.56-74.7-76.07-32.24-111.98-63.23-106.75-92.13,4.33-23.9,35.97-39.38,94.06-46l2.27,19.87c-53.66,6.12-74.78,19.35-76.65,29.7-2.32,12.83,21.13,38.91,94.88,70.16,68.51,29.03,162.03,55.11,263.32,73.43,101.28,18.31,198,26.64,272.35,23.44,80.02-3.44,111.12-19.65,113.45-32.48,.88-4.86-.72-23.04-58.18-53l9.25-17.73c49.75,25.94,72.83,50.94,68.61,74.3-5.23,28.9-49.73,45.35-132.27,48.9-10.66,.46-21.78,.69-33.28,.69Z"/>
    <path class="cls-3" d="M844.85,327.41c-12.8,0-27.46-.5-43.88-1.49-63.41-3.85-146.59-14.69-234.22-30.54-87.63-15.85-169.34-34.82-230.08-53.43-29.85-9.14-53.14-17.75-69.22-25.58-15.42-7.5-30.85-17-28.4-30.53,2.45-13.53,20.23-17.02,37.3-18.65,17.8-1.7,42.63-1.6,73.79,.29,63.41,3.85,146.59,14.69,234.22,30.54,87.63,15.85,169.34,34.82,230.08,53.43,29.85,9.14,53.14,17.75,69.22,25.58,15.42,7.5,30.85,17,28.4,30.53h0c-2.45,13.53-20.23,17.02-37.3,18.65-8.42,.8-18.42,1.21-29.92,1.21ZM261.69,189.93c6.88,5.29,28.03,17.36,91.37,36.06,58.77,17.35,135.92,35,217.26,49.71,81.34,14.71,159.79,25.2,220.91,29.54,65.87,4.67,89.91,.78,98.21-1.77-6.88-5.29-28.03-17.36-91.37-36.05-58.77-17.35-135.92-35-217.26-49.71-81.34-14.71-159.79-25.2-220.91-29.54-65.87-4.67-89.91-.78-98.21,1.77Z"/>
    <path class="cls-3" d="M717.95,796.02c-70.25,0-155.25-8.47-243.5-24.43-102.7-18.57-197.72-45.1-267.56-74.7-75.87-32.15-111.8-63.07-106.8-91.91l5.46-39.41,19.81,2.75-5.55,40c-2.32,12.83,21.14,38.91,94.88,70.16,68.51,29.04,162.03,55.11,263.31,73.43,101.29,18.32,198.01,26.65,272.36,23.45,79.68-3.43,110.86-19.51,113.41-32.32l5.46-39.35,19.81,2.75-5.55,40c-5.23,28.9-49.73,45.35-132.27,48.9-10.66,.46-21.77,.69-33.28,.69Z"/>
    <path class="cls-3" d="M724.09,687.34c-69.84,0-155.69-8.4-244.15-24.4-112.45-20.34-217.07-50.72-287.04-83.35-7.53-3.51-11.58-11.93-9.65-20.01l18.5-77.36c1.24-5.18,4.71-9.47,9.51-11.76,4.81-2.3,10.32-2.3,15.14-.01,68.49,32.61,172.64,63.04,285.74,83.5,118.37,21.41,229.8,29.07,305.7,21.03,5.65-.6,11.27,1.59,15.02,5.87,3.76,4.28,5.22,10.15,3.89,15.7l-17.38,72.7c-1.7,7.09-7.45,12.32-14.66,13.32-23.14,3.22-50.39,4.79-80.62,4.79Zm-520.93-125.04c68.47,31.62,170.48,61.09,280.34,80.96,123.87,22.4,242.08,29.74,316.81,19.71l16.2-67.75c-77.61,7.65-189.53-.18-307.93-21.59-113.3-20.49-218.04-50.99-288.07-83.84l-17.34,72.52Z"/>
    <rect class="cls-3" x="84.19" y="324.6" width="298.24" height="20" transform="translate(-123.72 531.88) rotate(-84.04)"/>
    <rect class="cls-3" x="711.45" y="440.2" width="298.24" height="20" transform="translate(185.52 1148.46) rotate(-73.58)"/>
  </g>
</svg>