<?xml version="1.0" encoding="UTF-8"?>
<svg xmlns="http://www.w3.org/2000/svg" viewBox="0 0 1000 1000">
  <defs>
    <style>
      .cls-1 {
        fill: #fff;
      }

      .cls-2 {
        fill: #fff3e3;
      }

      .cls-3 {
        fill: #d8c9b6;
      }

      .cls-4 {
        fill: #4267b2;
      }

      .cls-5 {
        fill: #685d49;
        stroke: #685d49;
        stroke-linejoin: round;
        stroke-width: 30px;
      }
    </style>
  </defs>
  <g id="Fondo_Lin" data-name="Fondo Lin">
    <polygon class="cls-3" points="137.42 716.54 124.73 703.85 150.52 693.99 150.52 713.66 137.42 716.54"/>
    <polygon class="cls-3" points="687.06 798.7 674.38 786.01 688.97 776.36 687.06 798.7"/>
    <path class="cls-5" d="M787.08,225.33c-9.75,22.03-31.79,37.4-57.42,37.4-14.11,0-27.12-4.66-37.6-12.52-5.9-7.88-9.99-17.19-11.65-27.33l-12.69-12.69-47.46-6.01c-11.12,17.55-30.72,29.2-53.04,29.2-14.09,0-27.09-4.65-37.57-12.49-4.11-5.49-7.35-11.66-9.5-18.33l-12.69-12.69-50.28-6.37c-11.34,16.33-30.23,27.02-51.61,27.02-14.09,0-27.1-4.65-37.57-12.5-3.59-4.8-6.53-10.13-8.64-15.85l-12.69-12.69-37.04-4.69L124.73,703.85l16.21,2.42-3.52,10.27,41.54,6.2c12.81-22.21,36.81-37.16,64.3-37.16,17.26,0,33.13,5.9,45.73,15.78,6.61,8.43,11.45,18.32,13.92,29.12l12.69,12.69,41.32,6.18c12.77-22.4,36.87-37.51,64.49-37.51,17.26,0,33.13,5.9,45.74,15.78,6.69,8.53,11.56,18.56,14,29.51l12.69,12.69,56.34,8.42c12.78-22.39,36.87-37.47,64.48-37.47,17.26,0,33.13,5.9,45.73,15.78,6.68,8.52,11.55,18.53,13.99,29.46l9.17,1.37c1.46,3.64,2.65,7.42,3.52,11.32l58.32,8.72,96.23-564.09-12.69-12.69-41.85-5.31Z"/>
  </g>
  <g id="Vector">
    <path class="cls-3" d="M841.62,243.33l-96.23,564.09-58.32-8.72c-7.4-33.15-37.01-57.93-72.4-57.93-27.61,0-51.7,15.09-64.48,37.47l-56.34-8.42c-7.39-33.17-37.01-57.98-72.43-57.98-27.62,0-51.73,15.11-64.49,37.51l-41.32-6.18c-7.54-32.98-37.07-57.58-72.34-57.58-27.48,0-51.48,14.95-64.3,37.16l-41.54-6.2L322.32,177.51l37.04,4.69c8.85,23.95,31.88,41.03,58.9,41.03,21.38,0,40.27-10.69,51.61-27.02l50.28,6.37c8.12,25.23,31.81,43.5,59.75,43.5,22.32,0,41.92-11.65,53.04-29.2l47.46,6.01c4.88,29.8,30.75,52.53,61.93,52.53,25.64,0,47.68-15.37,57.42-37.4l41.85,5.31Z"/>
    <polygon class="cls-3" points="137.42 716.54 124.73 703.85 150.52 693.99 150.52 713.66 137.42 716.54"/>
    <polygon class="cls-3" points="315.59 743.17 302.91 730.48 324.27 719.81 324.27 738.66 315.59 743.17"/>
    <polygon class="cls-3" points="493.84 769.82 481.15 757.13 515.64 750.95 493.84 769.82"/>
    <polygon class="cls-3" points="687.06 798.7 674.38 786.01 688.97 776.36 687.06 798.7"/>
    <polygon class="cls-3" points="841.62 243.33 828.93 230.64 811.09 251.84 841.62 243.33"/>
    <polygon class="cls-3" points="680.41 222.89 667.72 210.2 660.29 232.58 680.41 222.89"/>
    <polygon class="cls-3" points="520.16 202.58 507.47 189.89 495.56 212.09 520.16 202.58"/>
    <polygon class="cls-3" points="359.36 182.2 346.68 169.51 342.71 195.7 359.36 182.2"/>
    <path class="cls-2" d="M828.93,230.64l-96.23,564.09-58.32-8.72c-7.4-33.15-37.01-57.93-72.4-57.93-27.61,0-51.7,15.09-64.48,37.47l-56.34-8.42c-7.39-33.17-37.01-57.98-72.43-57.98-27.62,0-51.73,15.11-64.49,37.51l-41.32-6.18c-7.54-32.98-37.07-57.58-72.34-57.58-27.48,0-51.48,14.95-64.3,37.16l-41.54-6.2L309.63,164.82l37.04,4.69c8.85,23.95,31.88,41.03,58.9,41.03,21.38,0,40.27-10.69,51.61-27.02l50.28,6.37c8.12,25.23,31.81,43.5,59.75,43.5,22.32,0,41.92-11.65,53.04-29.2l47.46,6.01c4.88,29.8,30.75,52.53,61.93,52.53,25.64,0,47.68-15.37,57.42-37.4l41.85,5.31Z"/>
    <path class="cls-4" d="M734.7,347.53l-59.13,295.66c-3.69-.73-7.51-1.11-11.41-1.11-29.57,0-54.04,21.8-58.24,50.2l-328.45-49.1c.43-2.85,.65-5.77,.65-8.73,0-26.38-17.35-48.7-41.25-56.19l88.83-283.35c5.56,1.74,11.49,2.69,17.63,2.69,30.01,0,54.77-22.46,58.41-51.47l286.09,36.25c-.3,2.42-.46,4.9-.46,7.4,0,28.57,20.34,52.39,47.33,57.75Z"/>
    <path class="cls-1" d="M550.97,355.23c4.81,1.4,9.59,2.88,14.43,4.17,1.81,.48,2.24,1.29,1.87,3.06-2.32,11.24-4.59,22.49-6.78,33.76-.39,2.01-1.26,2.33-3.12,1.97-8.13-1.57-16.17-3.62-24.43-4.55-2.24-.25-4.45-.35-6.67-.09-6.22,.74-9.99,4.48-12.17,10.11-.81,2.08-1.41,4.22-1.85,6.42-1.64,8.29-3.28,16.58-5.03,24.84-.41,1.93,.09,2.7,2.03,3.08,12.2,2.38,24.39,4.87,36.58,7.33,3.1,.63,3.11,.65,2.08,3.72-4.13,12.3-8.3,24.58-12.38,36.9-.65,1.97-1.79,2.06-3.48,1.71-10.31-2.11-20.62-4.17-30.94-6.24-3.07-.62-3.08-.61-3.71,2.52-6.87,34.15-13.74,68.29-20.61,102.44q-.75,3.75-4.44,3.01c-12.42-2.5-24.85-5-37.27-7.5q-3.75-.76-3.02-4.46c6.8-33.84,13.61-67.67,20.42-101.51q.83-4.13-3.41-4.98c-9.85-1.98-19.68-4.01-29.54-5.9-2.24-.43-2.83-1.29-2.36-3.54,2.61-12.48,5.12-24.99,7.54-37.51,.44-2.26,1.3-2.83,3.54-2.36,10.14,2.14,20.31,4.13,30.47,6.17q3.3,.66,3.99-2.74c1.8-8.91,3.48-17.84,5.41-26.72,1.94-8.91,4.67-17.54,9.72-25.27,9.86-15.09,24.01-22.3,41.82-22.73,2.62-.06,5.24,.11,7.86,.18,7.82,1.57,15.63,3.14,23.45,4.72Z"/>
  </g>
</svg>