<?xml version="1.0" encoding="UTF-8"?>
<svg xmlns="http://www.w3.org/2000/svg" viewBox="0 0 1000 1000">
  <defs>
    <style>
      .cls-1, .cls-2 {
        fill: #685d49;
      }

      .cls-3 {
        fill: #fff;
      }

      .cls-4 {
        fill: #fffba9;
      }

      .cls-5 {
        fill: #efa8a8;
      }

      .cls-2 {
        font-family: Quicksand-Bold, 'Quicksand Bold';
        font-size: 132.29px;
        font-variation-settings: ';
      }
    </style>
  </defs>
  <g id="Fondo_Lin" data-name="Fondo Lin">
    <path class="cls-1" d="M816.71,360.74h0c-44.59-21.14-98.54-39.28-160.46-53.96-22.03-78.01-45.03-120.1-60.68-141.83-10.15-14.09-29.05-19.05-44.95-11.81-52.81,24.06-102.8,63.19-148.67,116.37-77.97-5.66-145.68-5.77-179.01-3.3-10.83,.8-20.69,6.32-27.04,15.14-6.33,8.79-8.43,19.83-5.77,30.3,13.88,54.66,41.93,110.54,83.4,166.21-36.1,79.67-57.45,149.91-67.11,185.35-2.91,10.68-.89,21.97,5.56,30.97,6.43,8.99,16.44,14.53,27.46,15.22,7.51,.47,15.11,.7,22.81,.7,62.35,0,130.84-15.28,204.02-45.55,65.13,48.09,135.8,89.55,194.99,114.3,5.15,2.15,10.52,3.21,15.8,3.21,7.73,0,15.29-2.27,21.71-6.73,10.12-7.03,15.65-18.25,15.16-30.78-3.03-77.43-8.44-149.76-16.1-215.15,57.08-42.5,103.87-84.28,129.17-109.81,8.35-8.42,12.1-20.43,10.05-32.12-2.05-11.67-9.65-21.65-20.34-26.72Z"/>
  </g>
  <g id="Vector">
    <path class="cls-4" d="M220.88,667.15c24.33-89.25,125.29-404.38,335.95-500.36,9.39-4.28,20.53-1.45,26.56,6.92,28.15,39.08,100.09,176.31,115.55,571.4,.66,16.74-16.44,26.34-31.9,19.88-142.13-59.43-408.15-243.59-462.38-457.04-3.3-12.99,6.01-25.8,19.37-26.79,79.49-5.89,393.58,1.8,586.25,93.12,13.44,6.37,16.52,24.16,6.05,34.73-69.22,69.86-339.01,300.12-575.97,285.4-13.66-.85-23.08-14.06-19.48-27.27Z"/>
    <path class="cls-1" d="M465.03,387.66c-3,0-5.84-1.82-6.99-4.78-15.76-40.52-62.65-36.76-64.63-36.58-4.13,.37-7.77-2.66-8.15-6.77-.38-4.12,2.63-7.77,6.75-8.16,.61-.06,15.17-1.37,32.15,3.48,23.04,6.58,39.59,21.31,47.87,42.59,1.5,3.86-.41,8.21-4.27,9.71-.89,.35-1.81,.51-2.72,.51Z"/>
    <path class="cls-1" d="M543.13,399.95c-2,0-3.99-.79-5.46-2.36-2.84-3.02-2.69-7.76,.32-10.6,16.63-15.65,37.91-21.81,61.54-17.84,17.42,2.93,29.99,10.38,30.52,10.69,3.55,2.13,4.71,6.74,2.58,10.29-2.13,3.55-6.73,4.7-10.28,2.58-1.75-1.04-42.43-24.58-74.08,5.19-1.45,1.36-3.3,2.04-5.14,2.04Z"/>
    <ellipse class="cls-5" cx="643.69" cy="417.6" rx="29.02" ry="15.9" transform="translate(-68.48 132.05) rotate(-11.13)"/>
    <ellipse class="cls-5" cx="367.39" cy="365.22" rx="15.9" ry="29.02" transform="translate(-116.16 551.08) rotate(-65.85)"/>
    <path class="cls-1" d="M559.59,459.3c-14.21,44.51-48.04,68.17-94.57,51.69-39.77-14.09-44.62-58.17-44.58-80.17,0-4.78,4.85-8.04,9.28-6.26,.57,.23,1.17,.47,1.79,.72,2.93,1.14,6.41,2.46,10.41,3.87,20.33,7.17,53.97,16.84,94.77,20.26,2.76,.23,5.55,.44,8.38,.61,2.75,.16,5.53,.3,8.34,.4,4.48,.17,7.53,4.61,6.16,8.89Z"/>
    <path class="cls-3" d="M545.09,450.02c-7.63,20.45-36.26,30.95-66.1,23.58-28.38-6.99-48.13-27.74-47.46-48.32,2.93,1.14,6.41,2.46,10.41,3.87,20.33,7.17,53.97,16.84,94.77,20.26,2.76,.23,5.55,.44,8.38,.61Z"/>
  </g>
  <g id="Tipo">
    <text class="cls-2" transform="translate(65.41 725.47) rotate(59.24)"><tspan x="0" y="0">F</tspan></text>
    <text class="cls-2" transform="translate(97.14 780.22) rotate(50.19)"><tspan x="0" y="0">A</tspan></text>
    <text class="cls-2" transform="translate(151.49 844.5) rotate(40.02)"><tspan x="0" y="0">V</tspan></text>
    <text class="cls-2" transform="translate(217.55 899.51) rotate(28.05)"><tspan x="0" y="0">O</tspan></text>
    <text class="cls-2" transform="translate(309.54 945.96) rotate(16.16)"><tspan x="0" y="0">R</tspan></text>
    <text class="cls-2" transform="translate(385.54 966.11) rotate(8.63)"><tspan x="0" y="0">I</tspan></text>
    <text class="cls-2" transform="translate(423.63 972.51) rotate(1.6)"><tspan x="0" y="0">T</tspan></text>
    <text class="cls-2" transform="translate(496.79 975.09) rotate(-9.18)"><tspan x="0" y="0">O</tspan></text>
    <text class="cls-2" transform="translate(597.62 956.33) rotate(-20.64)"><tspan x="0" y="0">S</tspan></text>
  </g>
</svg>