<?xml version="1.0" encoding="UTF-8"?>
<svg xmlns="http://www.w3.org/2000/svg" viewBox="0 0 1000 1000">
  <defs>
    <style>
      .cls-1 {
        fill: #f2e6c9;
      }

      .cls-2, .cls-3 {
        fill: #685d49;
      }

      .cls-4 {
        fill: #fff;
      }

      .cls-5 {
        fill: #fff3e3;
      }

      .cls-6 {
        fill: #e5bf83;
      }

      .cls-3 {
        font-family: Quicksand-Bold, 'Quicksand Bold';
        font-size: 132.29px;
        font-variation-settings: ';
      }
    </style>
  </defs>
  <g id="Fondo_Lin" data-name="Fondo Lin">
    <path class="cls-2" d="M855.63,377.44c-1.46-1.31-2.88-2.52-4.27-3.64,6.43-9.28,14.07-21.99,18.7-35.43,4.77-13.86,5.66-26.46,2.63-37.44-.48-1.74-1.27-3.37-2.33-4.83-.72-.99-15.2-20.49-41.61-27.17,2.9-15.18,6.79-39.26,8.14-64.92,3.19-60.84-9.64-99.18-38.14-113.95-27.51-14.26-66.31-7.85-115.33,19.04-24.05,13.2-44.48,28.01-54.91,35.99-14.17-6.12-44.29-18.19-79.1-26.49-21.65-5.18-41.85-8.08-60.04-8.62-15.44-.46-29.59,.78-42.25,3.7-8.76-10.97-25.82-31.24-46.66-50.58-43.13-40.02-80.23-55.42-110.29-45.76-31.16,10.02-49.73,50.03-56.77,122.31-3.15,32.42-3.14,63.47-2.73,81.53-1.14,.01-2.31,.03-3.49,.04-18.02,.29-24.91,1.77-28.52,2.85-6.08,1.82-10.35,7.28-10.67,13.62-.11,2.1-.51,17.29,8.4,35.98-2.36,.93-4.83,1.94-7.33,3.03-21.26,9.28-32.16,18.35-35.33,29.4-.6,2.1-.74,4.31-.4,6.47,.27,1.71,6.43,38.56,39.24,64.95-.42,2.88-.4,5.85,.1,8.78,1.33,7.83,3.82,19.19,8.23,29.42-4.11,5.45-9.89,13.49-15.24,22.27-5.67,9.32-5.53,20.81,.36,29.98,5.19,8.08,13.88,12.84,23.27,12.98-2.23,8.03-4.29,16.31-6.17,24.79-16.28,73.44-6.33,142.24,28.79,198.95,34.67,55.98,91.57,96.63,164.56,117.57,31.76,9.11,63.64,13.72,94.84,13.72,1.2,0,2.39,0,3.59-.02,32.45-.37,63.4-5.74,91.99-15.96,57.62-20.6,102.38-59.5,129.94-112.79,39.2-4.14,76.18-39.94,86.83-85.94,4.79-20.68,4.15-42.4-1.7-62.35,18.36-12.68,30.55-23.72,36.29-32.9,2.71-4.34,3.03-9.77,.83-14.39-2.97-6.25-5.77-11.24-8.38-15.24,5.26-4.41,11.62-9.98,18.15-16.25,22.86-21.96,35.58-40.5,38.87-56.68,.82-4.03-.05-8.23-2.42-11.6-.6-.86-14.86-21.11-29.65-34.42Z"/>
  </g>
  <g id="Vector">
    <g>
      <path class="cls-1" d="M721.39,655c-40.27,140.43-180.37,193.13-320.8,152.86-140.43-40.27-214.47-156.23-182.84-298.86,45.37-204.63,181.87-221.46,322.3-181.19,140.43,40.27,221.62,186.76,181.35,327.19Z"/>
      <path class="cls-1" d="M789.03,617.9c-11.58,50.03-56.09,81.58-91.18,73.46s-54.14-55.26-42.56-105.29c11.58-50.03,49.42-83.99,84.51-75.87s60.82,57.67,49.24,107.7Z"/>
      <path class="cls-2" d="M349,528.11h0s.01,0,.01,0c-1.78-14.69-6.37-25.54-10.73-32.9,0,0-4.23-8.47-11.56-13.42-21.74-14.07-38.78-7.86-51.12-1.1-13.3,7.3-21.35,18.1-21.69,18.55-1.96,2.67-1.4,6.41,1.26,8.38,1.07,.8,2.32,1.18,3.56,1.18,1.84,0,3.65-.84,4.83-2.42,.08-.11,.33-.43,.71-.9,.17-.22,.36-.44,.55-.67,.05-.06,.09-.11,.15-.17,6.18-7.08,21.14-15.82,30.75-14.89-16.53,9.61-30.7,32.73-35.6,61.39-6.93,40.54,7.3,76.79,31.77,80.97,24.47,4.18,49.93-25.29,56.86-65.83,2.32-13.55,2.26-26.62,.25-38.17Z"/>
      <path class="cls-2" d="M610.2,563.79h0s.01,0,.01,0c-1.78-14.69-6.37-25.54-10.73-32.9,0,0-4.23-8.47-11.56-13.42-21.74-14.07-38.78-7.86-51.12-1.1-13.3,7.3-21.35,18.1-21.69,18.55-1.96,2.67-1.4,6.41,1.26,8.38,1.07,.8,2.32,1.18,3.56,1.18,1.84,0,3.65-.84,4.83-2.42,.08-.11,.33-.43,.71-.9,.17-.22,.36-.44,.55-.67,.05-.06,.09-.11,.15-.17,6.18-7.08,21.14-15.82,30.75-14.89-16.53,9.61-30.7,32.73-35.6,61.39-6.93,40.54,7.3,76.79,31.77,80.97,24.47,4.18,49.93-25.29,56.86-65.83,2.32-13.55,2.26-26.62,.25-38.17Z"/>
      <path class="cls-2" d="M427.89,741.51c-7.15,0-14.86-.94-23.17-2.81-36.17-8.16-49.19-42.01-49.73-43.45-1.45-3.88,.52-8.2,4.4-9.65,3.87-1.44,8.18,.52,9.64,4.38,.12,.31,10.89,27.75,38.98,34.08,27.17,6.13,44.74,1.08,56.94-16.36,2.37-3.39,7.05-4.22,10.44-1.85,3.39,2.38,4.22,7.05,1.85,10.45-11.8,16.86-28.06,25.21-49.36,25.21Z"/>
      <path class="cls-2" d="M725.19,658.41c-2.6,0-5.13-1.36-6.52-3.78-2.06-3.6-.81-8.18,2.79-10.23,3.95-2.26,10.47-10.22,16.66-20.35-3.02-7.86-13.55-17.03-17.44-19.96l-3.81-2.87,.98-4.67c5.77-27.41,26.63-50.6,27.52-51.58,2.79-3.06,7.53-3.29,10.59-.5,3.06,2.79,3.29,7.53,.51,10.59-.27,.3-16.75,18.72-22.86,40.21,5.62,4.82,15.44,14.31,18.91,24.5,1.32,3.86,.84,8.1-1.31,11.64-5.63,9.27-14.06,21.31-22.3,26.02-1.17,.67-2.45,.99-3.71,.99Z"/>
      <path class="cls-2" d="M251.48,344.27c-5.33,3.6-26.37,17.83-38.63,26.48-4.17,2.94-6.27,8.02-5.41,13.06,1.21,7.16,3.52,17.73,7.59,26.82,1.96,4.39,1.35,9.51-1.56,13.34-4,5.27-9.75,13.2-15.01,21.84-5.75,9.44,1.89,21.37,12.87,20.06,30.65-3.64,83.54-11.39,115.24-24.29,5.72-2.33,12.3-.33,15.84,4.74,13.3,19.03,45.63,62.23,74.35,76.57,4.43,2.21,9.72,1.77,13.72-1.16,6.63-4.86,17.32-13.93,26.21-27.21,3.66-5.46,10.77-7.39,16.7-4.55,1.15,.55,2.38,1.11,3.68,1.67,5.21,2.23,11.25,.84,15.04-3.37,4.95-5.51,11.81-13.89,16.63-22.77,3.65-6.73,12.14-9.07,18.61-4.98,22.38,14.13,67.58,41.92,94.65,53.41,4.65,1.97,7.74,6.45,7.99,11.49,.8,16.12,3.85,52.16,15.52,81.84,3.58,9.11,15.42,11.41,22.07,4.23,12.91-13.95,32.42-47.49,52.82-128.12,.95-3.74,.21-7.72-2.01-10.88l-94.61-134.48c-2-2.84-5.04-4.79-8.46-5.41l-226.34-41.3c-1.74-.32-3.53-.28-5.26,.1l-100.24,22.36c-2.62,.58-5,1.95-6.83,3.92l-22.88,24.64c-.69,.74-1.46,1.4-2.29,1.96Z"/>
      <path class="cls-4" d="M257.65,375.97s10.72,46.91,35.9,56.15c0,0,34.15-9.75,45.9-50.04l-81.81-6.1Z"/>
      <path class="cls-4" d="M551.05,419.35s.16,48.43,25.27,64.3c0,0,39.51-.07,62.16-35.91l-87.43-28.39Z"/>
      <path class="cls-4" d="M493.06,383.09s4.47,47.91,28.22,60.37c0,0,35.14-5.18,52.08-43.58l-80.3-16.8Z"/>
      <path class="cls-4" d="M359.08,365.7s15.22,45.65,41.18,52.39c0,0,33.05-13.02,40.83-54.26l-82.01,1.87Z"/>
      <path class="cls-4" d="M322.88,361.17s12.88,45.88,33.33,53.16c0,0,25.58-12.29,30.79-53.28l-64.12,.12Z"/>
      <path class="cls-4" d="M421.84,374.27s12.91,46.91,43.24,56.15c0,0,41.14-9.75,55.29-50.04l-98.54-6.1Z"/>
      <path class="cls-5" d="M808.62,494.83c6.33,1.02,16.89,23.24,16.89,23.24-7.21,11.53-28.68,26.5-41.57,34.84-9.1-21.98-25.27-38.34-44.15-42.71-13.77-3.19-27.97,.1-40.83,8.31-57.16-75.65-228.81-115.61-244.34-118.62-16.34-3.16-26.92-11.6-26.92-11.6-11.61,8.44-74.92,4.22-161.44,0-86.53-4.23-98.13-78.04-98.13-78.04,4.22-14.72,50.65-28.54,50.65-28.54-16.89-22.16-15.83-43.26-15.83-43.26,5.07-1.52,15.25-2.07,24.46-2.22,1.89-.03,3.74-.05,5.5-.06,5.46,37.35,25.21,107,96.62,111.68,97.9,6.42,113.94,8.02,113.94,8.02,0,0,77.85,11.23,105.93,28.09,26.67,16,196.16,57.31,306.47-50.47-8.11,23.56-27.2,45.3-27.2,45.3,4.84,.32,10.88,4.36,16.92,9.8,13.69,12.32,27.4,31.88,27.4,31.88-6.33,31.13-64.37,74.36-64.37,74.36Z"/>
      <path class="cls-6" d="M855.87,333.49c-110.31,107.78-279.8,66.47-306.47,50.47-28.08-16.86-105.93-28.09-105.93-28.09,0,0-16.04-1.6-113.94-8.02-71.41-4.68-91.16-74.33-96.62-111.68,7.5-.02,13.3,.17,13.3,.17,0,0-10.55-185.71,48.54-204.71,59.09-18.99,146.67,99.19,146.67,99.19,14.49-4.75,30.75-6.34,47.49-5.84,19.01,.57,38.64,3.83,57,8.22,46.4,11.07,84.74,29.3,84.74,29.3,0,0,106.22-87.6,161.19-59.11,54.97,28.49,18.89,178.32,18.89,178.32,30.6,0,47.49,23.22,47.49,23.22,2.46,8.91,.98,18.89-2.35,28.56Z"/>
      <path class="cls-2" d="M428.71,375.05c-4.11-2.62-21.41-13.83-29.8-21.9-2.52-2.42-1.21-6.67,2.22-7.27,13.86-2.44,47.6-5.57,85.68,11.47,3.45,1.54,3.35,6.48-.16,7.87-12.14,4.79-35.04,12.28-56.01,10.5-.69-.06-1.35-.29-1.93-.66Z"/>
      <circle class="cls-4" cx="630.65" cy="286.43" r="87.22"/>
      <ellipse class="cls-4" cx="357.25" cy="238.99" rx="80.47" ry="67.9" transform="translate(17.49 502.27) rotate(-71.55)"/>
      <circle class="cls-2" cx="630.65" cy="286.43" r="73.53"/>
      <ellipse class="cls-2" cx="357.25" cy="238.99" rx="68.22" ry="57.56" transform="translate(17.49 502.27) rotate(-71.55)"/>
      <ellipse class="cls-2" cx="257.65" cy="295.68" rx="24.74" ry="14.57" transform="translate(-93.49 121.02) rotate(-22.49)"/>
      <ellipse class="cls-2" cx="284.9" cy="325.9" rx="15.47" ry="9.96" transform="translate(-133.06 213.24) rotate(-33.75)"/>
      <ellipse class="cls-2" cx="682.13" cy="399.33" rx="11.8" ry="18.33" transform="translate(-92.9 244.11) rotate(-19.02)"/>
      <ellipse class="cls-2" cx="727.95" cy="393.1" rx="19.38" ry="31.21" transform="translate(-98.98 368.02) rotate(-26.63)"/>
      <path class="cls-2" d="M545.91,133.2c-7.03,9.75-15.32,25.07-23.87,47.16-10.9,28.17-17.11,53.96-17.17,54.22-2.91,12.16-13.77,20.34-25.75,20.34-2.04,0-4.11-.23-6.18-.73-14.24-3.4-23.02-17.69-19.62-31.93,.29-1.19,7.12-29.56,19.29-61.02,5.26-13.6,10.69-25.68,16.3-36.26,19.01,.57,38.64,3.83,57,8.22Z"/>
      <path class="cls-2" d="M562.83,198.04c-1.66,0-3.35-.26-5.02-.81-60.92-20.11-106.56-19.35-107.01-19.34-8.82,.18-16.15-6.79-16.36-15.61-.21-8.82,6.75-16.15,15.57-16.38,2.06-.05,51.27-1.04,117.84,20.94,8.39,2.77,12.95,11.82,10.18,20.21-2.22,6.73-8.48,10.99-15.19,10.99Z"/>
      <path class="cls-2" d="M377.88,130.65s-54.7-79.09-76.26-67.29c-21.56,11.79-9.77,98.53-9.77,98.53"/>
      <path class="cls-2" d="M687.98,178.52s54.81-60.36,83.25-38.85c28.44,21.51-4.16,99.32-4.16,99.32"/>
      <g>
        <path class="cls-6" d="M677.2,187.02s39.27-64.57,50.75,18.25c0,0,20.45-17.95,22.04,12.12,0,0,27.25-3.68,23.56,32.19"/>
        <path class="cls-2" d="M773.55,254.07c-.15,0-.31,0-.47-.02-2.47-.25-4.27-2.47-4.02-4.94,1.11-10.78-.62-18.5-5.15-22.94-5.34-5.24-13.27-4.33-13.35-4.32l-4.79,.59-.28-4.81c-.37-7.1-2-11.93-4.34-12.93-2.85-1.21-8.23,2.21-10.24,3.96l-6.27,5.44-1.15-8.21c-4.33-31.18-12.05-37.31-16.27-38.19-9.41-1.96-22.38,15.42-26.19,21.66-1.29,2.12-4.06,2.79-6.18,1.5-2.12-1.29-2.8-4.06-1.5-6.18,1.83-3.02,18.43-29.38,35.7-25.8,10.78,2.23,18.09,14.95,22.27,38.8,3.76-1.87,8.68-3.23,13.32-1.28,5.14,2.17,8.32,7.7,9.46,16.46,4.3,.31,10.77,1.7,16.02,6.79,6.66,6.45,9.31,16.67,7.9,30.38-.24,2.32-2.19,4.04-4.47,4.04Z"/>
      </g>
      <g>
        <path class="cls-6" d="M393.58,130.93s-23.21-71.92-53.6,5.97c0,0-15.73-22.21-24.25,6.68,0,0-25.65-9.91-30.38,25.84"/>
        <path class="cls-2" d="M285.35,173.92c-.2,0-.4-.01-.6-.04-2.46-.33-4.2-2.59-3.87-5.05,1.81-13.67,6.77-22.99,14.74-27.72,6.29-3.73,12.9-3.59,17.16-2.89,3.14-8.26,7.51-12.9,13.02-13.81,4.97-.83,9.43,1.64,12.66,4.33,9.6-22.23,19.64-32.9,30.67-32.57,17.63,.53,27.65,30.01,28.74,33.38,.76,2.37-.53,4.9-2.9,5.66-2.36,.77-4.9-.53-5.66-2.9-2.25-6.95-10.85-26.86-20.44-27.15-4.34-.14-13.24,4.04-24.68,33.37l-3.04,7.78-4.83-6.82c-1.55-2.16-5.97-6.73-9.03-6.22-2.51,.43-5.22,4.75-7.23,11.57l-1.38,4.68-4.56-1.76s-7.56-2.74-13.97,1.12c-5.44,3.27-8.91,10.37-10.33,21.12-.3,2.26-2.23,3.91-4.46,3.91Z"/>
      </g>
    </g>
  </g>
  <g id="Tipo">
    <text class="cls-3" transform="translate(151.19 843.6) rotate(40.85)"><tspan x="0" y="0">L</tspan></text>
    <text class="cls-3" transform="translate(201.97 888.59) rotate(30.46)"><tspan x="0" y="0">O</tspan></text>
    <text class="cls-3" transform="translate(292.68 939.87) rotate(17.54)"><tspan x="0" y="0">G</tspan></text>
    <text class="cls-3" transform="translate(382.97 965.62) rotate(8.96)"><tspan x="0" y="0">I</tspan></text>
    <text class="cls-3" transform="translate(422 972.89) rotate(.93)"><tspan x="0" y="0">N</tspan></text>
  </g>
</svg>