<?xml version="1.0" encoding="UTF-8"?>
<svg id="Capa_2" data-name="Capa 2" xmlns="http://www.w3.org/2000/svg" viewBox="0 0 741.56 348.24">
  <defs>
    <style>
      .cls-1 {
        fill: #00b1ff;
      }

      .cls-2 {
        fill: #fcfcfc;
      }

      .cls-3 {
        fill: #fff;
      }
    </style>
  </defs>
  <g id="Capa_1-2" data-name="Capa 1">
    <path class="cls-3" d="M264.14,135.55c-.91,.82-2.32,1.43-4.23,1.84-1.91,.41-3.94,.61-6.07,.61s-4.21-.16-6.21-.48c-2-.32-3.46-.84-4.37-1.57-1-.73-2.03-2.3-3.07-4.71-1.05-2.41-2.14-4.89-3.28-7.44-1.14-2.55-2.25-4.78-3.34-6.69-1.09-1.91-2.09-2.77-3-2.59-1,.27-1.41,1.39-1.23,3.34,.18,1.96,.5,4.14,.96,6.55,.45,2.41,.82,4.73,1.09,6.96,.27,2.23,.05,3.71-.68,4.44-.73,.73-2.12,1.3-4.16,1.71-2.05,.41-4.21,.59-6.48,.55-2.28-.05-4.44-.34-6.48-.89-2.05-.55-3.44-1.41-4.16-2.59-.36-.55-.66-2.27-.89-5.19-.23-2.91-.43-6.57-.61-10.99-.18-4.41-.3-9.33-.34-14.74-.05-5.41-.05-10.97,0-16.65,.04-5.69,.16-11.28,.34-16.79,.18-5.51,.39-10.49,.61-14.95,.23-4.46,.52-8.17,.89-11.13,.36-2.96,.77-4.8,1.23-5.53,.64-.91,1.8-1.66,3.48-2.25,1.68-.59,3.64-1.02,5.87-1.3,2.23-.27,4.62-.43,7.17-.48,2.55-.05,4.98-.02,7.3,.07,2.32,.09,4.39,.27,6.21,.55,1.82,.27,3.09,.55,3.82,.82,1.09,.46,1.96,1.87,2.59,4.23,.64,2.37,1.2,4.89,1.71,7.58,.5,2.69,1,5.12,1.5,7.3,.5,2.18,1.16,3.32,1.98,3.41,.82,.18,1.64-.64,2.46-2.46,.82-1.82,1.57-3.93,2.25-6.35,.68-2.41,1.32-4.82,1.91-7.24,.59-2.41,1.11-4.12,1.57-5.12,.27-.64,1.23-1.2,2.87-1.71,1.64-.5,3.59-.89,5.87-1.16,2.27-.27,4.73-.43,7.37-.48,2.64-.05,5.16,.05,7.58,.27,2.41,.23,4.53,.61,6.35,1.16,1.82,.55,3.05,1.23,3.69,2.05,.45,.64,.89,2.46,1.3,5.46,.41,3,.75,6.76,1.02,11.26,.27,4.5,.5,9.56,.68,15.15,.18,5.6,.32,11.28,.41,17.06,.09,5.78,.16,11.44,.2,16.99,.05,5.55,.02,10.56-.07,15.02-.09,4.46-.2,8.17-.34,11.13-.14,2.96-.3,4.76-.48,5.39-.36,1-1.59,1.73-3.69,2.18-2.09,.46-4.37,.71-6.83,.75-2.46,.05-4.78-.07-6.96-.34s-3.5-.68-3.96-1.23c-.82-1-1.16-2.78-1.02-5.32,.14-2.55,.36-5.14,.68-7.78,.32-2.64,.55-4.96,.68-6.96,.14-2-.2-3-1.02-3-1.73,.09-3.07,1.21-4.03,3.34-.96,2.14-1.77,4.53-2.46,7.17-.68,2.64-1.32,5.14-1.91,7.51-.59,2.37-1.34,3.78-2.25,4.23Z"/>
    <path class="cls-3" d="M313.56,37.13c.55-1,2-1.77,4.37-2.32,2.37-.55,5.21-.93,8.53-1.16,3.32-.23,6.85-.34,10.58-.34s7.3,.07,10.72,.21c3.41,.14,6.39,.34,8.94,.61,2.55,.27,4.23,.55,5.05,.82,1,.36,1.91,2,2.73,4.91,.82,2.91,1.59,6.64,2.32,11.19,.73,4.55,1.37,9.69,1.91,15.43,.55,5.73,1,11.63,1.37,17.68,.36,6.05,.61,11.99,.75,17.81,.14,5.82,.18,11.13,.14,15.9-.05,4.78-.23,8.78-.55,12.01-.32,3.23-.75,5.26-1.3,6.07-.36,.46-1.32,.84-2.87,1.16-1.55,.32-3.3,.55-5.26,.68-1.96,.14-3.89,.18-5.8,.14-1.91-.05-3.37-.16-4.37-.34-1-.18-1.84-1.05-2.53-2.59-.68-1.55-1.23-3.3-1.64-5.25-.41-1.96-.73-3.84-.96-5.67-.23-1.82-.39-3.09-.48-3.82-.09-.55-.48-1.02-1.16-1.43-.68-.41-1.43-.64-2.25-.68-.82-.04-1.59,.16-2.32,.61-.73,.46-1.23,1.37-1.5,2.73-.27,1.37-.48,2.82-.61,4.37-.14,1.55-.32,3.03-.55,4.44-.23,1.41-.5,2.66-.82,3.75-.32,1.09-.8,1.82-1.43,2.18-.55,.36-1.64,.71-3.28,1.02-1.64,.32-3.53,.57-5.66,.75-2.14,.18-4.39,.3-6.76,.34-2.37,.05-4.57-.02-6.62-.21-2.05-.18-3.8-.52-5.26-1.02-1.46-.5-2.32-1.2-2.59-2.12-.64-1.82-.98-5.28-1.02-10.37-.05-5.1,.09-10.99,.41-17.68,.32-6.69,.82-13.76,1.5-21.23,.68-7.46,1.45-14.52,2.32-21.16,.86-6.64,1.82-12.44,2.87-17.4,1.05-4.96,2.07-8.3,3.07-10.03Zm33.85,53.92c0-.91,.02-2.25,.07-4.03,.04-1.78,.07-3.73,.07-5.87s-.05-4.34-.14-6.62c-.09-2.27-.27-4.32-.55-6.14-.27-1.82-.68-3.3-1.23-4.44-.55-1.14-1.28-1.71-2.18-1.71-.73,.09-1.34,.68-1.84,1.78-.5,1.09-.93,2.5-1.3,4.23-.36,1.73-.66,3.66-.89,5.8-.23,2.14-.41,4.21-.55,6.21-.14,2-.25,3.87-.34,5.6-.09,1.73-.14,3.05-.14,3.96-.09,2.18,.32,3.87,1.23,5.05,.91,1.18,1.93,1.87,3.07,2.05,1.14,.18,2.21-.21,3.21-1.16,1-.95,1.5-2.52,1.5-4.71Z"/>
    <path class="cls-3" d="M411.84,120.53c-.18,.82-.25,2.07-.21,3.75,.05,1.68,.07,3.41,.07,5.19s-.14,3.39-.41,4.85c-.27,1.46-.82,2.37-1.64,2.73-.55,.27-1.66,.5-3.34,.68-1.68,.18-3.62,.32-5.8,.41-2.18,.09-4.48,.14-6.89,.14s-4.69-.07-6.83-.21c-2.14-.14-3.96-.36-5.46-.68-1.5-.32-2.44-.75-2.8-1.3-.36-.45-.66-2.68-.89-6.69-.23-4-.43-8.99-.61-14.95-.18-5.96-.32-12.56-.41-19.79-.09-7.23-.12-14.31-.07-21.23,.04-6.91,.11-13.31,.2-19.18,.09-5.87,.23-10.44,.41-13.72,.18-1.55,1.3-3.07,3.34-4.57,2.05-1.5,5.16-2.34,9.35-2.53,3-.09,6.3-.09,9.9,0,3.59,.09,7.14,.32,10.65,.68,3.5,.37,6.8,.82,9.9,1.37,3.09,.55,5.69,1.18,7.78,1.91,5.82,2.09,9.85,6.1,12.08,12.01,2.23,5.92,3.3,13.15,3.21,21.7-.09,4.28-.14,8.15-.14,11.6s-.07,6.55-.2,9.28c-.14,2.73-.41,5.17-.82,7.3-.41,2.14-1.07,4.03-1.98,5.67-.91,1.64-1.75,2.87-2.52,3.68-.77,.82-1.43,1.43-1.98,1.84-.55,.41-.96,.75-1.23,1.02-.27,.27-.37,.73-.27,1.37,.09,.64,.64,2.07,1.64,4.3,1,2.23,2,4.62,3,7.17,1,2.55,1.8,4.96,2.39,7.23,.59,2.28,.48,3.78-.34,4.5-.82,.73-1.98,1.25-3.48,1.57-1.5,.32-3.07,.5-4.71,.55-1.64,.05-3.23-.02-4.78-.21-1.55-.18-2.78-.5-3.69-.96-.27-.09-.71-.73-1.3-1.91-.59-1.18-1.27-2.57-2.05-4.16-.77-1.59-1.62-3.25-2.52-4.98-.91-1.73-1.8-3.18-2.66-4.37-.87-1.18-1.64-1.93-2.32-2.25-.68-.32-1.21,.07-1.57,1.16Zm-.41-23.61c0,1.64,.27,2.8,.82,3.48,.55,.68,1.16,.96,1.84,.82,.68-.14,1.39-.64,2.12-1.5,.73-.86,1.37-2.07,1.91-3.62,.64-2,1.09-4.32,1.37-6.96,.27-2.64,.36-5.35,.27-8.12-.09-2.78-.32-5.55-.68-8.33-.36-2.78-.87-5.39-1.5-7.85-.46-1.64-1.02-2.82-1.71-3.55-.68-.73-1.39-1.05-2.12-.96-.73,.09-1.39,.52-1.98,1.3-.59,.77-.93,1.89-1.02,3.34-.18,2.18-.25,4.98-.2,8.4,.05,3.41,.14,6.78,.27,10.1,.14,3.32,.27,6.26,.41,8.8,.14,2.55,.2,4.1,.2,4.64Z"/>
    <path class="cls-3" d="M459.21,37.13c.55-1,2-1.77,4.37-2.32,2.37-.55,5.21-.93,8.53-1.16,3.32-.23,6.85-.34,10.58-.34s7.3,.07,10.72,.21c3.41,.14,6.39,.34,8.94,.61,2.55,.27,4.23,.55,5.05,.82,1,.36,1.91,2,2.73,4.91,.82,2.91,1.59,6.64,2.32,11.19,.73,4.55,1.37,9.69,1.91,15.43,.55,5.73,1,11.63,1.37,17.68,.36,6.05,.61,11.99,.75,17.81,.14,5.82,.18,11.13,.14,15.9-.05,4.78-.23,8.78-.55,12.01-.32,3.23-.75,5.26-1.3,6.07-.36,.46-1.32,.84-2.87,1.16-1.55,.32-3.3,.55-5.26,.68-1.96,.14-3.89,.18-5.8,.14-1.91-.05-3.37-.16-4.37-.34-1-.18-1.84-1.05-2.52-2.59-.68-1.55-1.23-3.3-1.64-5.25-.41-1.96-.73-3.84-.96-5.67-.23-1.82-.39-3.09-.48-3.82-.09-.55-.48-1.02-1.16-1.43-.68-.41-1.43-.64-2.25-.68-.82-.04-1.59,.16-2.32,.61-.73,.46-1.23,1.37-1.5,2.73-.27,1.37-.48,2.82-.61,4.37-.14,1.55-.32,3.03-.55,4.44-.23,1.41-.5,2.66-.82,3.75-.32,1.09-.8,1.82-1.43,2.18-.55,.36-1.64,.71-3.28,1.02-1.64,.32-3.53,.57-5.66,.75-2.14,.18-4.39,.3-6.76,.34-2.37,.05-4.57-.02-6.62-.21-2.05-.18-3.8-.52-5.25-1.02-1.46-.5-2.32-1.2-2.59-2.12-.64-1.82-.98-5.28-1.02-10.37-.05-5.1,.09-10.99,.41-17.68,.32-6.69,.82-13.76,1.5-21.23,.68-7.46,1.45-14.52,2.32-21.16,.86-6.64,1.82-12.44,2.87-17.4,1.04-4.96,2.07-8.3,3.07-10.03Zm33.85,53.92c0-.91,.02-2.25,.07-4.03,.05-1.78,.07-3.73,.07-5.87s-.05-4.34-.14-6.62c-.09-2.27-.27-4.32-.55-6.14-.27-1.82-.68-3.3-1.23-4.44-.55-1.14-1.28-1.71-2.18-1.71-.73,.09-1.34,.68-1.84,1.78-.5,1.09-.93,2.5-1.3,4.23-.36,1.73-.66,3.66-.89,5.8-.23,2.14-.41,4.21-.55,6.21-.14,2-.25,3.87-.34,5.6-.09,1.73-.14,3.05-.14,3.96-.09,2.18,.32,3.87,1.23,5.05,.91,1.18,1.93,1.87,3.07,2.05,1.14,.18,2.21-.21,3.21-1.16,1-.95,1.5-2.52,1.5-4.71Z"/>
    <path class="cls-3" d="M584.52,59.92c-1.09,.46-2.55,.59-4.37,.41-1.82-.18-3.64-.41-5.46-.68-1.82-.27-3.53-.45-5.12-.55-1.59-.09-2.66,.09-3.21,.55-.37,.36-.66,1.8-.89,4.3-.23,2.5-.36,5.6-.41,9.28-.05,3.69-.05,7.62,0,11.81,.05,4.19,.14,8.1,.27,11.74,.14,3.64,.27,6.71,.41,9.22,.14,2.5,.25,3.84,.34,4.03,.18,.37,1.09,.71,2.73,1.02,1.64,.32,3.55,.64,5.73,.96,2.18,.32,4.37,.68,6.55,1.09,2.18,.41,3.87,.89,5.05,1.43,1.18,.55,1.98,1.53,2.39,2.93,.41,1.41,.61,2.98,.61,4.71s-.12,3.48-.34,5.26c-.23,1.77-.39,3.25-.48,4.44-.09,.73-1.16,1.48-3.21,2.25-2.05,.77-4.66,1.46-7.85,2.05-3.19,.59-6.74,1.14-10.65,1.64-3.91,.5-7.76,.86-11.53,1.09-3.78,.23-7.3,.32-10.58,.27-3.28-.05-5.87-.25-7.78-.61-2.91-.55-5.23-2.14-6.96-4.78-1.73-2.64-3.12-5.96-4.16-9.97-1.05-4-1.78-8.51-2.18-13.51-.41-5-.75-10.24-1.02-15.7-.18-3.64-.23-7.55-.14-11.74,.09-4.18,.27-8.4,.55-12.63,.27-4.23,.7-8.35,1.3-12.35,.59-4,1.32-7.6,2.18-10.78,.86-3.18,1.86-5.87,3-8.05,1.14-2.18,2.48-3.59,4.03-4.23,1.55-.64,3.84-1.04,6.89-1.23,3.05-.18,6.46-.18,10.24,0,3.77,.18,7.69,.5,11.74,.96,4.05,.46,7.8,1,11.26,1.64,3.46,.64,6.46,1.34,9.01,2.12,2.55,.77,4.19,1.57,4.91,2.39,1.09,1.27,1.66,2.87,1.71,4.78,.05,1.91-.18,3.82-.68,5.73-.5,1.91-1.14,3.69-1.91,5.32-.77,1.64-1.43,2.78-1.98,3.41Z"/>
    <path class="cls-3" d="M598.85,37.4c.45-.82,1.32-1.5,2.59-2.05,1.27-.55,2.78-.96,4.5-1.23,1.73-.27,3.62-.45,5.67-.55,2.05-.09,4.12-.09,6.21,0,3.64,.09,6.46,.34,8.46,.75,2,.41,3.46,1.07,4.37,1.98,.91,.91,1.48,2.09,1.71,3.55,.23,1.46,.43,3.32,.61,5.6,.18,3.19,.32,5.64,.41,7.37,.09,1.73,.14,3.03,.14,3.89s-.05,1.53-.14,1.98c0,.27,.09,.73,.27,1.37,.36,1.91,.91,3.14,1.64,3.69,.73,.55,1.48,.68,2.25,.41,.77-.27,1.5-.86,2.18-1.77,.68-.91,1.11-1.91,1.3-3,.27-1.27,.45-2.12,.55-2.52,.09-.41,.16-1,.2-1.78,.05-.77,.07-2.09,.07-3.96s.09-4.85,.27-8.94c0-2.09,.25-3.69,.75-4.78,.5-1.09,1.18-1.89,2.05-2.39,.86-.5,1.98-.8,3.34-.89,1.37-.09,2.96-.14,4.78-.14,3.36-.09,5.89,.21,7.58,.89,1.68,.68,2.61,2.25,2.8,4.71,.18,2.37,.32,5.46,.41,9.28,.09,3.82,.16,8.05,.2,12.69,.04,4.64,.04,9.53,0,14.68-.05,5.14-.14,10.28-.27,15.42-.14,5.14-.27,10.13-.41,14.95-.14,4.82-.25,9.15-.34,12.97-.18,3.82-.59,6.85-1.23,9.08-.64,2.23-1.48,3.96-2.53,5.19-1.05,1.23-2.32,2.07-3.82,2.52-1.5,.46-3.12,.77-4.85,.96-3.19,.36-6.74,.66-10.65,.89-3.91,.23-7.87,.29-11.88,.2-4.01-.09-7.94-.34-11.81-.75-3.87-.41-7.3-1.07-10.31-1.98-3-.91-5.46-2.14-7.37-3.69-1.91-1.55-2.96-3.5-3.14-5.87-.27-3.09-.46-6.76-.55-10.99-.09-4.23-.12-8.69-.07-13.38,.04-4.69,.11-9.42,.2-14.2,.09-4.78,.21-9.26,.34-13.45,.14-4.18,.25-7.89,.34-11.12,.09-3.23,.18-5.62,.27-7.17,.09-4.37,.34-8.1,.75-11.19,.41-3.09,1.11-5.5,2.12-7.23Z"/>
    <path class="cls-3" d="M730.99,52.55c-.73,.73-1.75,1.11-3.07,1.16-1.32,.05-2.78-.02-4.37-.2-1.59-.18-3.21-.41-4.85-.68-1.64-.27-3.09-.41-4.37-.41-1.37,0-2.5,.32-3.41,.96-.91,.64-1.62,1.43-2.12,2.39-.5,.96-.77,2-.82,3.14-.05,1.14,.16,2.16,.61,3.07,.45,1,1.82,1.68,4.1,2.05,2.27,.36,4.78,.68,7.51,.95,2.73,.27,5.39,.61,7.99,1.02,2.59,.41,4.48,1.16,5.67,2.25,.82,.73,1.55,2.48,2.18,5.26,.64,2.78,1.16,6.12,1.57,10.03,.41,3.91,.73,8.17,.96,12.76,.23,4.6,.34,9.06,.34,13.38s-.14,8.31-.41,11.95c-.27,3.64-.68,6.46-1.23,8.46-.55,2-2.28,3.6-5.19,4.78-2.91,1.18-6.42,2.07-10.51,2.66-4.1,.59-8.56,.93-13.38,1.02-4.82,.09-9.42,.04-13.79-.14-4.37-.18-8.26-.41-11.67-.68-3.41-.27-5.8-.55-7.17-.82-2.09-.36-3.64-1.41-4.64-3.14-1-1.73-1.46-3.53-1.37-5.39,.09-1.86,.75-3.5,1.98-4.91,1.23-1.41,3.07-2.07,5.53-1.98,2.37,.09,4.44-.09,6.21-.55,1.77-.45,3.14-1.09,4.1-1.91,.95-.82,1.43-1.71,1.43-2.66s-.59-1.84-1.77-2.66c-1.18-.82-2.66-1.8-4.44-2.93-1.78-1.14-3.53-2.48-5.26-4.03-1.73-1.55-3.23-3.34-4.5-5.39-1.28-2.05-1.96-4.39-2.05-7.03-.09-1.73-.14-4.39-.14-7.99s.11-7.58,.34-11.95c.23-4.37,.61-8.87,1.16-13.51,.55-4.64,1.34-8.89,2.39-12.76,1.04-3.87,2.39-7.1,4.03-9.69,1.64-2.59,3.69-4.07,6.14-4.44,2.36-.27,5.3-.45,8.8-.55,3.5-.09,7.14-.07,10.92,.07,3.77,.14,7.58,.39,11.4,.75,3.82,.36,7.23,.89,10.24,1.57s5.44,1.46,7.3,2.32c1.86,.87,2.84,1.89,2.94,3.07,0,1.82-.12,3.32-.34,4.51-.23,1.18-.59,2.18-1.09,3-.5,.82-1.07,1.52-1.71,2.12-.64,.59-1.37,1.16-2.18,1.71Z"/>
    <path class="cls-1" d="M258.12,206.38c-1.01,.72-2.42,1.1-4.24,1.15-1.82,.05-3.83-.02-6.03-.2-2.2-.18-4.42-.41-6.68-.68-2.26-.27-4.27-.41-6.03-.41-1.88,0-3.45,.32-4.71,.95-1.26,.63-2.23,1.42-2.92,2.37-.69,.95-1.07,1.99-1.13,3.11-.06,1.13,.22,2.14,.85,3.04,.63,.99,2.51,1.67,5.65,2.03,3.14,.36,6.59,.68,10.36,.95,3.77,.27,7.44,.61,11.01,1.02,3.58,.41,6.18,1.15,7.81,2.23,1.13,.72,2.13,2.46,3.01,5.21,.88,2.75,1.6,6.07,2.17,9.94,.56,3.88,1,8.1,1.32,12.65,.31,4.55,.47,8.97,.47,13.26s-.19,8.23-.56,11.84c-.38,3.61-.94,6.4-1.7,8.39-.75,1.98-3.14,3.56-7.15,4.73-4.02,1.17-8.85,2.05-14.5,2.64-5.65,.59-11.8,.92-18.45,1.01-6.65,.09-12.99,.04-19.02-.14-6.03-.18-11.39-.41-16.1-.68s-8-.54-9.89-.81c-2.89-.36-5.02-1.4-6.4-3.11-1.38-1.71-2.01-3.49-1.88-5.34,.12-1.85,1.04-3.47,2.73-4.87,1.7-1.4,4.24-2.05,7.63-1.96,3.26,.09,6.12-.09,8.57-.54,2.45-.45,4.33-1.08,5.65-1.89,1.32-.81,1.98-1.69,1.98-2.64s-.82-1.83-2.45-2.64c-1.63-.81-3.67-1.78-6.12-2.91-2.45-1.13-4.87-2.46-7.25-3.99-2.39-1.53-4.46-3.31-6.21-5.34-1.76-2.03-2.7-4.35-2.82-6.97-.13-1.71-.19-4.35-.19-7.91s.16-7.51,.47-11.84c.31-4.33,.85-8.79,1.6-13.39,.75-4.6,1.85-8.81,3.3-12.65,1.44-3.83,3.3-7.03,5.55-9.6,2.26-2.57,5.08-4.04,8.47-4.4,3.26-.27,7.31-.45,12.14-.54,4.83-.09,9.85-.07,15.06,.07,5.21,.13,10.45,.38,15.72,.74,5.27,.36,9.98,.88,14.12,1.55s7.5,1.44,10.07,2.3c2.57,.86,3.92,1.87,4.05,3.04,0,1.81-.16,3.29-.47,4.46-.31,1.17-.82,2.16-1.51,2.98-.69,.81-1.48,1.51-2.35,2.1-.88,.59-1.88,1.15-3.01,1.69Z"/>
    <path class="cls-1" d="M211.43,144.97c.89-.38,3.58-.74,8.06-1.06,4.48-.32,73.93,2.44,80.14,2.31,6.21-.13,12.86-.19,19.96-.19s13.69,.1,19.77,.29c6.08,.19,12.04-1.22,16.33-.9,4.28,.32,6.81,.74,7.58,1.25,.77,.51,1.37,1.6,1.82,3.26,.45,1.66,.77,3.62,.96,5.86,.19,2.24,.32,4.67,.38,7.29,.06,2.62,.03,5.15-.1,7.58-.13,2.43-.32,4.61-.58,6.53-.26,1.92-.51,3.33-.77,4.22-.38,1.41-1.6,2.27-3.65,2.59-2.05,.32-4.29,.48-6.72,.48s-4.8-.06-7.1-.19c-2.3-.13-3.97,0-4.99,.38-.51,.26-.83,1.89-.96,4.9-.13,3.01-.16,6.91-.1,11.71,.06,4.8,.22,10.27,.48,16.41,.25,6.14,.54,12.38,.86,18.71,.32,6.33,.61,12.61,.86,18.81,.25,6.21,.45,11.8,.58,16.8,.13,4.99,.13,9.09,0,12.28-.13,3.2-.38,5.06-.77,5.57-.51,.64-1.92,1.12-4.22,1.44s-5.06,.51-8.25,.58c-3.2,.06-6.69,.06-10.46,0-3.78-.07-7.46-.19-11.04-.38-3.58-.19-6.91-.41-9.98-.67-3.07-.25-5.44-.51-7.1-.77-1.28-.13-2.24-1.66-2.88-4.61-.64-2.94-1.09-6.78-1.34-11.52-.26-4.73-.32-10.14-.19-16.22,.13-6.08,.32-12.28,.58-18.62,.25-6.33,.54-12.57,.86-18.71,.32-6.14,.64-11.71,.96-16.7,.32-4.99,.54-9.12,.67-12.38,.13-3.26,.13-5.15,0-5.66-.38-1.02-1.59-.26-3.19-.52-1.6-.25-67.51-3.43-69.49-3.56-1.98-.13-3.9-.29-5.76-.48-1.86-.19-3.1-.73-3.74-1.63-.38-.64-.67-1.89-.86-3.74-.19-1.85-.04-5.44,.02-7.93,.06-2.49,.22-5.15,.48-7.97,.25-2.81-.21-3.74,.18-6.1,.38-2.37,.8-4.35,1.25-5.95,.45-1.6,.93-2.53,1.44-2.78Z"/>
    <path class="cls-1" d="M379.98,149.36c.64-1.15,1.85-2.11,3.65-2.88,1.79-.77,3.9-1.34,6.33-1.73,2.43-.38,5.09-.64,7.97-.77,2.88-.13,5.79-.13,8.73,0,5.12,.13,9.08,.48,11.9,1.06,2.81,.58,4.86,1.51,6.14,2.78,1.28,1.28,2.08,2.95,2.4,4.99,.32,2.05,.61,4.67,.86,7.87,.25,4.48,.45,7.93,.58,10.36,.13,2.43,.19,4.26,.19,5.47s-.06,2.14-.19,2.78c0,.38,.13,1.03,.38,1.92,.51,2.69,1.28,4.41,2.3,5.18,1.02,.77,2.08,.96,3.17,.58,1.09-.38,2.11-1.21,3.07-2.49,.96-1.28,1.56-2.69,1.82-4.22,.38-1.79,.64-2.97,.77-3.55,.13-.58,.22-1.41,.29-2.5,.06-1.08,.1-2.94,.1-5.57s.13-6.81,.38-12.57c0-2.94,.35-5.18,1.06-6.72,.7-1.54,1.66-2.65,2.88-3.36,1.21-.7,2.78-1.12,4.7-1.25,1.92-.13,4.16-.19,6.72-.19,4.73-.13,8.28,.29,10.65,1.25,2.37,.96,3.68,3.17,3.94,6.62,.25,3.33,.45,7.68,.58,13.05,.13,5.37,.22,11.32,.29,17.85,.06,6.53,.06,13.41,0,20.63-.07,7.23-.19,14.46-.38,21.69-.19,7.23-.38,14.24-.58,21.02-.19,6.78-.35,12.86-.48,18.24-.26,5.37-.83,9.63-1.73,12.76-.9,3.14-2.08,5.57-3.55,7.29-1.47,1.73-3.26,2.91-5.37,3.55-2.11,.64-4.38,1.09-6.81,1.34-4.48,.51-9.47,.93-14.97,1.25-5.5,.32-11.07,.41-16.7,.29-5.63-.13-11.16-.48-16.6-1.06-5.44-.58-10.27-1.5-14.49-2.78-4.22-1.28-7.68-3-10.36-5.18-2.69-2.17-4.16-4.92-4.41-8.25-.38-4.35-.64-9.5-.77-15.45-.13-5.95-.16-12.22-.1-18.81,.06-6.59,.16-13.24,.29-19.96,.13-6.72,.29-13.02,.48-18.91,.19-5.88,.35-11.1,.48-15.64,.13-4.54,.25-7.9,.38-10.08,.13-6.14,.48-11.39,1.06-15.74,.58-4.35,1.56-7.74,2.97-10.17Z"/>
    <path class="cls-1" d="M484,147.63c1.02-.77,3-1.44,5.95-2.02,2.94-.58,6.43-1.02,10.46-1.34,4.03-.32,8.41-.51,13.15-.58,4.73-.06,9.37,0,13.92,.19,4.54,.19,8.73,.51,12.57,.96,3.84,.45,6.91,1.06,9.21,1.82,3.45,1.15,6.81,3.68,10.08,7.58,3.26,3.9,6.21,8.9,8.83,14.97,2.62,6.08,4.73,13.08,6.33,21.02,1.6,7.93,2.46,16.51,2.59,25.72,.13,9.21-.42,17.95-1.63,26.2-1.22,8.25-2.88,15.58-4.99,21.98-2.11,6.4-4.54,11.74-7.29,16.03-2.75,4.29-5.66,7-8.73,8.16-2.05,.77-5.09,1.41-9.12,1.92-4.03,.51-8.57,.86-13.63,1.06-5.06,.19-10.27,.25-15.64,.19-5.37-.06-10.4-.25-15.07-.58-4.67-.32-8.67-.67-12-1.06-3.33-.38-5.44-.89-6.33-1.54-.64-.51-1.18-2.81-1.63-6.91-.45-4.09-.8-9.37-1.06-15.83-.26-6.46-.42-13.75-.48-21.88-.07-8.12-.03-16.44,.1-24.95,.13-8.51,.32-16.86,.58-25.05,.25-8.19,.58-15.58,.96-22.17,.38-6.59,.83-12.06,1.34-16.41,.51-4.35,1.02-6.84,1.54-7.49Zm53.74,99.23c0,3.07,.35,5.28,1.06,6.62,.7,1.34,1.54,1.89,2.49,1.63,.96-.25,1.98-1.21,3.07-2.88,1.09-1.66,2.02-3.97,2.78-6.91,1.92-7.93,2.72-15.71,2.4-23.32-.32-7.61-1.38-16.09-3.17-25.43-.64-3.07-1.44-5.31-2.4-6.72-.96-1.41-1.95-2.08-2.98-2.02-1.03,.07-1.95,.86-2.78,2.4-.83,1.54-1.31,3.65-1.44,6.33-.26,4.35-.35,9.21-.29,14.59,.06,5.37,.19,10.56,.38,15.55,.19,4.99,.38,9.34,.58,13.05,.19,3.71,.29,6.08,.29,7.1Z"/>
    <path class="cls-1" d="M587.07,167.21c.38-6.27,.93-11.04,1.63-14.3,.7-3.26,1.95-5.53,3.74-6.81,1.79-1.28,4.25-1.92,7.39-1.92s7.26,.07,12.38,.19c4.48,.13,8.19,.26,11.13,.38,2.94,.13,5.28,.93,7,2.4,1.73,1.47,2.98,3.94,3.74,7.39,.77,3.45,1.28,8.51,1.54,15.16,.13,6.14,.26,13.08,.38,20.83,.13,7.74,.19,15.71,.19,23.9v46.26c0,7.93-.26,14.08-.77,18.43-.51,4.35-1.6,7.49-3.26,9.41-1.66,1.92-4.03,3.04-7.1,3.36-3.07,.32-7.1,.41-12.09,.29-7.17-.13-12.61-.58-16.31-1.34-3.71-.77-6.33-2.14-7.87-4.13-1.54-1.98-2.4-4.73-2.59-8.25-.19-3.52-.42-8.09-.67-13.72-.26-6.91-.42-14.68-.48-23.32-.07-8.64,0-17.37,.19-26.2,.19-8.83,.45-17.4,.77-25.72,.32-8.32,.67-15.74,1.06-22.26Z"/>
    <path class="cls-1" d="M734.67,151.28c1.02,1.15,1.98,4.8,2.88,10.94,.89,6.14,1.66,13.63,2.3,22.46,.64,8.83,1.12,18.43,1.44,28.79,.32,10.36,.35,20.34,.1,29.94-.26,9.6-.77,18.2-1.54,25.82-.77,7.61-1.92,13.08-3.45,16.41-.64,1.28-2.47,2.43-5.47,3.45-3.01,1.03-6.72,1.82-11.13,2.4-4.41,.58-9.28,1.02-14.59,1.34-5.31,.32-10.53,.48-15.64,.48s-9.89-.13-14.3-.38c-4.42-.26-7.97-.64-10.65-1.15-4.1-.77-7.36-2.97-9.79-6.62-2.43-3.65-4.38-8.22-5.86-13.72-1.47-5.5-2.49-11.74-3.07-18.71-.58-6.97-1.06-14.23-1.44-21.79-.26-4.99-.32-10.36-.19-16.12,.13-5.76,.38-11.55,.77-17.37,.38-5.82,.99-11.48,1.82-16.99,.83-5.5,1.85-10.46,3.07-14.87,1.22-4.41,2.62-8.12,4.22-11.13,1.6-3.01,3.49-4.96,5.66-5.86,2.17-.89,5.37-1.6,9.6-2.11,4.22-.51,8.93-.86,14.11-1.06,5.18-.19,10.59-.19,16.22,0,5.63,.19,10.84,.51,15.64,.96,4.8,.45,8.95,1.09,12.48,1.92,3.52,.83,5.79,1.82,6.81,2.97Zm-28.79,100.96c0,3.07,.38,5.28,1.15,6.62,.77,1.34,1.63,1.89,2.59,1.63,.96-.25,1.95-1.21,2.97-2.88,1.02-1.66,1.92-3.96,2.69-6.91,1.92-7.93,2.72-15.71,2.4-23.32-.32-7.61-1.38-16.09-3.17-25.43-.64-3.2-1.44-5.5-2.4-6.91-.96-1.41-1.95-2.05-2.97-1.92-1.03,.13-1.95,.96-2.78,2.49-.83,1.54-1.31,3.65-1.44,6.33-.26,4.35-.35,9.21-.29,14.59,.06,5.37,.19,10.56,.38,15.55,.19,4.99,.38,9.34,.58,13.05,.19,3.71,.29,6.08,.29,7.1Z"/>
    <path class="cls-2" d="M2.63,.27C21.06,9.31,39.48,18.35,59.53,28.19c-1.3-9.6-2.42-17.83-3.54-26.06,.96-.71,1.92-1.42,2.89-2.13,30.54,24.18,61.07,48.36,92.66,73.37,5.47-16.18,9.19-31.61,15.93-45.59,4.58-9.51,13.31-17.04,20.38-25.29,.77-.89,3.19-1.36,4.27-.84,13.19,6.37,26.28,12.97,39.39,19.51-.34,1.26-.68,2.53-1.02,3.79h-36.9V156.33h-37.64v190.83c-1.1,.36-2.2,.72-3.3,1.08-2.01-3.68-4.45-7.19-5.96-11.07-17.29-44.42-34.64-88.83-51.45-133.44-2.86-7.58-6.59-9.98-14.55-9.78-22.86,.57-45.75,.23-68.62,.16-3.69-.01-7.38-.44-11.07-.68-.33-1.34-.67-2.68-1-4.01,25.15-10.91,50.3-21.82,76.18-33.05C50.46,104.78,25.25,54.22,.04,3.65,.9,2.53,1.77,1.4,2.63,.27Zm126,133.67C90.98,96.65,54.74,60.74,18.59,24.92c.07-.12-.4,.35-.31,.53,20.19,40.82,40.33,81.67,60.92,122.28,1.11,2.19,6.75,4.19,9.15,3.28,13.19-4.99,26.04-10.92,40.29-17.08ZM24.7,18.06c36.26,36.44,72.26,72.62,108.94,109.48,5.12-15.45,10.24-30.9,15.59-47.03C107.39,59.54,66.29,38.92,24.7,18.06Zm124.91,176.95h-51.22c16.77,43.37,33.09,85.56,49.4,127.76,.61-.14,1.21-.29,1.82-.43v-127.33ZM186.78,15.15c-1.18-.51-2.36-1.01-3.54-1.52-4.02,6.87-8.92,13.37-11.86,20.68-4.84,12.04-8.49,24.57-12.44,36.96-.92,2.88-2.34,6.66-1.26,8.95,8.89,18.81,18.32,37.38,29.1,59.08V15.15Zm-51.82,172.6c.14-.63,.27-1.25,.41-1.88-15.35-7.69-30.66-15.45-46.09-22.98-2.3-1.12-5.62-2.35-7.64-1.52-19.31,7.94-38.44,16.31-57.62,24.56,.2,.61,.4,1.21,.6,1.82h110.33Zm-15.12-16.85c10.03,4.95,19.47,9.62,30.04,14.84-.21-17.72,4.71-34.85-15.3-43.88-4.75,9.36-9.47,18.67-14.74,29.04Zm50.54-50.4c-10.98,5.57-20.21,10.25-29.28,14.85,9.99,20.06,26.79,14.97,44.19,15.06-5.32-10.67-9.91-19.86-14.92-29.91Zm-50.69-61.92c.37-.52,.74-1.03,1.11-1.55-18.54-14.63-37.08-29.25-55.61-43.88-1.04,.77-2.09,1.54-3.13,2.31,3.45,6.47,5.27,15.53,10.66,18.92,14.86,9.34,31.21,16.3,46.98,24.2Zm34.01,28.45c-4.93,14.83-9.03,27.15-13.88,41.72,10.75-5.45,19.03-9.65,27.73-14.07-4.34-8.66-8.19-16.36-13.85-27.66Zm-39.59,81.12c4.37-8.56,8.36-16.36,13.72-26.84-13.22,5.74-23.63,10.26-35.78,15.54,8.13,4.17,14.32,7.34,22.06,11.31Z"/>
  </g>
</svg>