<?xml version="1.0" encoding="UTF-8"?>
<svg xmlns="http://www.w3.org/2000/svg" viewBox="0 0 1000 1000">
  <defs>
    <style>
      .cls-1, .cls-2 {
        fill: #685d49;
      }

      .cls-3 {
        fill: #ea7575;
      }

      .cls-4 {
        fill: #fff;
      }

      .cls-5 {
        fill: #efa8a8;
      }

      .cls-2 {
        font-family: Quicksand-Bold, 'Quicksand Bold';
        font-size: 132.29px;
        font-variation-settings: ';
      }
    </style>
  </defs>
  <g id="Fondo_Lin" data-name="Fondo Lin">
    <path class="cls-1" d="M874,401.3c-6.39-75.94-35-130.34-85.05-161.69-24.44-15.31-53.93-24.91-87.66-28.56-26.4-2.85-55.48-2.08-86.43,2.31-37.71,5.34-68.72,14.65-83.7,19.66-20.77-21.18-84.65-78.97-166.58-82.98-53.41-2.61-103.73,18.12-149.57,61.62-29.04,27.56-48.29,62.93-57.22,105.11-8.08,38.2-7.5,80.85,1.74,126.77,14.43,71.73,49.25,146.65,98.05,210.96,50.37,66.39,111.68,115.67,172.63,138.76,6.21,2.35,12.77,3.54,19.36,3.54,3.03,0,6.07-.25,9.07-.76,30.88-5.22,139.17-26.8,236.33-85.01,55.36-33.17,98.64-73,128.65-118.38,36.78-55.64,53.75-119.84,50.42-190.81l-.04-.55Z"/>
  </g>
  <g id="Vector">
    <path class="cls-3" d="M526.91,250.43s-149.31-172.41-301.57-27.89c-149.66,142.05,14.34,482.5,210.19,556.7,6.57,2.49,13.68,3.19,20.61,2.02,65.31-11.05,416.71-84.27,402.91-378.7-22.82-271.29-332.14-152.13-332.14-152.13Z"/>
    <ellipse class="cls-5" cx="772.08" cy="443.93" rx="39.32" ry="29.38"/>
    <ellipse class="cls-5" cx="238.9" cy="365.86" rx="29.38" ry="39.32" transform="translate(-155.7 553.53) rotate(-82.29)"/>
    <g>
      <path class="cls-4" d="M772.08,416.91c0,48.4-36.83,30.67-91.91,30.67-6.04,0-12.05,.21-17.96,.54-47.99,2.56-89.58,11.89-89.58-31.21,0-31.13,18.45-58.46,46.26-74.02,15.45-8.63,33.79-13.64,53.47-13.64,55.08,0,99.73,39.25,99.73,87.66Z"/>
      <path class="cls-1" d="M772.08,416.91c0,48.4-36.83,30.67-91.91,30.67-6.04,0-12.05,.21-17.96,.54-27.45-17.8-45.61-48.71-45.61-83.86,0-7.34,.79-14.48,2.29-21.37,15.45-8.63,33.79-13.64,53.47-13.64,55.08,0,99.73,39.25,99.73,87.66Z"/>
    </g>
    <g>
      <path class="cls-4" d="M424.31,402.57c-17.6,44.16-58.56,10.33-108.47-10.21-.93-.38-1.85-.75-2.78-1.13-51.16-20.39-91.95-17.55-74.02-62.52,13.34-33.48,47.79-53.08,85.65-52.49,12.99,.2,26.37,2.78,39.45,7.99,51.17,20.39,78.11,73.38,60.18,118.36Z"/>
      <path class="cls-1" d="M424.31,402.57c-17.6,44.16-58.56,10.33-108.47-10.21-9.22-15.12-14.53-32.9-14.53-51.91,0-24.47,8.78-46.86,23.38-64.23,12.99,.2,26.37,2.78,39.45,7.99,51.17,20.39,78.11,73.38,60.18,118.36Z"/>
    </g>
    <path class="cls-4" d="M737.45,544.34c0,26.9-18.19,49.54-42.94,56.32-30.87,9.6-60.88,15.76-89.76,19.2-5.02,.61-10.02,1.13-14.97,1.57-46.91,4.16-90.6,1.29-129.79-5.41-5.09-.86-10.08-1.79-15.01-2.79-48-9.63-88.59-24.69-119.23-38.72-5.1-2.32-9.92-4.62-14.46-6.86-21.95-10.86-37.18-20.34-44.36-25.07-.08-.05-.14-.09-.2-.14-2.36-1.55-3.81-2.57-4.31-2.92-.13-.09-.19-.14-.19-.14-14.17-10.65-23.34-27.6-23.34-46.7,0-32.24,26.14-58.39,58.39-58.39,12.15,0,23.45,3.72,32.8,10.08,.04,.02,.08,.05,.11,.06,1.9,1.19,3.81,2.37,5.71,3.52,4.48,2.72,8.97,5.31,13.44,7.79,37.32,20.67,74.44,33.45,109.21,40.98,4.99,1.08,9.93,2.04,14.81,2.92,47.59,8.47,90.03,7.42,121.51,3.95,5.5-.6,10.67-1.28,15.47-1.99,25.69-3.81,40.91-8.63,40.91-8.63h.01c8.27-4.47,17.73-7.02,27.79-7.02,32.24,0,58.39,26.13,58.39,58.39Z"/>
    <path class="cls-4" d="M266.73,542.43c-1.48-.9-2.92-1.88-4.31-2.92,.5,.35,1.95,1.37,4.31,2.92Z"/>
    <path class="cls-1" d="M473.37,499.64c-5.26,26.87-12.65,72.06-13.38,116.38-5.09-.86-10.08-1.79-15.01-2.79,.94-44.93,8.28-89.63,13.58-116.5,4.99,1.08,9.93,2.04,14.81,2.92Z"/>
    <path class="cls-1" d="M604.75,619.86c-5.02,.61-10.02,1.13-14.97,1.57-2.52-43.82,1.47-88.73,5.1-117.84,5.5-.6,10.67-1.28,15.47-1.99-3.62,28.21-8,74.16-5.6,118.27Z"/>
    <path class="cls-1" d="M349.35,455.75c-8.08,28.21-19.6,74.16-23.6,118.76-5.1-2.32-9.92-4.62-14.46-6.86,4.7-46.34,16.62-92.46,24.62-119.68,4.48,2.72,8.97,5.31,13.44,7.79Z"/>
  </g>
  <g id="Tipo">
    <text class="cls-2" transform="translate(75 747.53) rotate(53.57)"><tspan x="0" y="0">M</tspan></text>
    <text class="cls-2" transform="translate(148.3 840.84) rotate(41.18)"><tspan x="0" y="0">E</tspan></text>
    <text class="cls-2" transform="translate(203.27 886.97) rotate(34.44)"><tspan x="0" y="0"> </tspan></text>
    <text class="cls-2" transform="translate(232.47 908.78) rotate(26.18)"><tspan x="0" y="0">G</tspan></text>
    <text class="cls-2" transform="translate(321.16 950.84) rotate(13.64)"><tspan x="0" y="0">U</tspan></text>
    <text class="cls-2" transform="translate(415.43 971.59) rotate(2.67)"><tspan x="0" y="0">S</tspan></text>
    <text class="cls-2" transform="translate(490 974.34) rotate(-6.72)"><tspan x="0" y="0">T</tspan></text>
    <text class="cls-2" transform="translate(554.84 967.37) rotate(-16)"><tspan x="0" y="0">A</tspan></text>
  </g>
</svg>