<?xml version="1.0" encoding="UTF-8"?>
<svg xmlns="http://www.w3.org/2000/svg" viewBox="0 0 1000 1000">
  <defs>
    <style>
      .cls-1 {
        fill: #f2e6c9;
      }

      .cls-2, .cls-3 {
        fill: #685d49;
      }

      .cls-4 {
        fill: #fff3e3;
      }

      .cls-5 {
        fill: #eacc9c;
      }

      .cls-3 {
        font-family: Quicksand-Bold, 'Quicksand Bold';
        font-size: 132.29px;
        font-variation-settings: ';
      }
    </style>
  </defs>
  <g id="Fondo_Lin" data-name="Fondo Lin">
    <path class="cls-2" d="M880.95,534.73c-20.78-15.72-49.47-31.43-81.56-44.71-.31-8.34-1.01-16.67-2.09-24.86-2.86-21.59-8.37-42.64-16.38-62.58-3.87-9.63-8.39-19.17-13.46-28.36-2.12-3.83-4.21-7.4-6.36-10.88-5.32-8.62-11.24-17.09-17.6-25.17-16.52-20.98-34.58-39.62-53.69-55.4-3.2-2.64-6.47-5.24-9.74-7.74-62.4-47.6-121.12-55.43-143.24-58.38-20.37-2.71-58.58-1.93-98.03,5.93-36.49,7.27-88.76,23.57-130.6,59.87-75.13,65.18-96.82,125.12-97.71,127.64-1.7,4.83-.82,10.18,2.33,14.21-12.18,13.54-20.84,25.46-25.87,35.61-3.12,6.29-2.53,13.77,1.52,19.52,.39,.55,.8,1.08,1.24,1.57-18.3,18.92-40.3,46.71-58.97,84.66-3.3,6.71-2.68,14.68,1.62,20.81,6.57,9.38,18.3,25.26,28.98,35.38-2.19,7.62-4.38,16.71-5.04,24.47-.65,7.62,2.97,14.9,9.44,19.01,8.95,5.69,31.53,18.85,58.3,25.63,15.93,30.04,38.09,56.34,65.97,78.24,29.97,23.55,65.79,41.41,106.47,53.07,31.74,9.1,63.82,13.69,94.94,13.69,19.72,0,39.05-1.84,57.67-5.54,45.48-9.04,86.08-29.1,118.09-58.24,16.93,7.61,39.53,13.9,63.83,9.94,7.18-1.17,13.25-6.11,15.86-12.89,2.51-6.55,6.53-17.88,8.83-28.85,18.12-.55,39.79-3.42,53.66-12.72,5.79-3.89,9.17-10.39,9.04-17.39-.3-15.9-1.88-67.11-9.86-104.14,37.82,9.19,93.42,16.85,105.16-13.35,6.64-17.07-4.37-36.59-32.73-58.04Z"/>
  </g>
  <g id="Vector">
    <g>
      <ellipse class="cls-2" cx="769.24" cy="536.6" rx="39.47" ry="139.97" transform="translate(-9.69 1059.05) rotate(-68.75)"/>
      <ellipse class="cls-2" cx="541.36" cy="230.24" rx="23.72" ry="31.88" transform="translate(206.68 714.06) rotate(-78.37)"/>
      <path class="cls-4" d="M644.68,741.25c10.74,8.39,45.38,32.34,83.9,26.07,1.94-.32,3.56-1.63,4.27-3.46,2.41-6.29,7.93-21.59,9.31-33.48,.32-2.8,2.67-4.9,5.49-4.89,11.51,.05,39.32-.88,53.33-10.28,1.55-1.04,2.44-2.8,2.41-4.66-.31-16.6-2.72-102.42-19.22-129.56-1.67-2.74-5.33-3.46-7.93-1.58l-89.22,64.61c-.75,.54-1.34,1.26-1.74,2.09l-42.16,88.44c-1.11,2.33-.46,5.11,1.57,6.7Z"/>
      <path class="cls-4" d="M232.76,463.28c-16.06,11.37-56.98,44.81-88.56,109-.88,1.8-.71,3.94,.44,5.58,5.17,7.38,20.13,28.06,30.94,36.52,1.81,1.42,2.57,3.8,1.87,5.99-1.92,6.07-5.44,18.12-6.21,27.22-.17,2.03,.81,3.98,2.53,5.08,12.32,7.83,64.67,38.47,107.05,23.38,2.62-.93,4.16-3.63,3.59-6.35l-43.07-203.06c-.82-3.88-5.34-5.64-8.57-3.35Z"/>
      <path class="cls-1" d="M721.39,655c-40.27,140.43-180.37,193.13-320.8,152.86-140.43-40.27-214.47-156.23-182.84-298.86,45.37-204.63,181.87-221.46,322.3-181.19,140.43,40.27,221.62,186.76,181.35,327.19Z"/>
      <path class="cls-1" d="M789.03,617.9c-11.58,50.03-56.09,81.58-91.18,73.46-35.09-8.12-54.14-55.26-42.56-105.29,11.58-50.03,49.42-83.99,84.51-75.87,35.09,8.12,60.82,57.67,49.24,107.7Z"/>
      <path class="cls-2" d="M349,528.11h0s.01,0,.01,0c-1.78-14.69-6.37-25.54-10.73-32.9,0,0-4.23-8.47-11.56-13.42-21.74-14.07-38.78-7.86-51.12-1.1-13.3,7.3-21.35,18.1-21.69,18.55-1.96,2.67-1.4,6.41,1.26,8.38,1.07,.8,2.32,1.18,3.56,1.18,1.84,0,3.65-.84,4.83-2.42,.08-.11,.33-.43,.71-.9,.17-.22,.36-.44,.55-.67,.05-.06,.09-.11,.15-.17,6.18-7.08,21.14-15.82,30.75-14.89-16.53,9.61-30.7,32.73-35.6,61.39-6.93,40.54,7.3,76.79,31.77,80.97,24.47,4.18,49.93-25.29,56.86-65.83,2.32-13.55,2.26-26.62,.25-38.17Z"/>
      <path class="cls-2" d="M610.2,563.79h0s.01,0,.01,0c-1.78-14.69-6.37-25.54-10.73-32.9,0,0-4.23-8.47-11.56-13.42-21.74-14.07-38.78-7.86-51.12-1.1-13.3,7.3-21.35,18.1-21.69,18.55-1.96,2.67-1.4,6.41,1.26,8.38,1.07,.8,2.32,1.18,3.56,1.18,1.84,0,3.65-.84,4.83-2.42,.08-.11,.33-.43,.71-.9,.17-.22,.36-.44,.55-.67,.05-.06,.09-.11,.15-.17,6.18-7.08,21.14-15.82,30.75-14.89-16.53,9.61-30.7,32.73-35.6,61.39-6.93,40.54,7.3,76.79,31.77,80.97,24.47,4.18,49.93-25.29,56.86-65.83,2.32-13.55,2.26-26.62,.25-38.17Z"/>
      <path class="cls-2" d="M427.89,741.51c-7.15,0-14.86-.94-23.17-2.81-36.17-8.16-49.19-42.01-49.73-43.45-1.45-3.88,.52-8.2,4.4-9.65,3.87-1.44,8.18,.52,9.64,4.38,.12,.31,10.89,27.75,38.98,34.08,27.18,6.13,44.74,1.08,56.94-16.36,2.38-3.39,7.05-4.22,10.45-1.85,3.39,2.38,4.22,7.05,1.85,10.45-11.8,16.86-28.06,25.21-49.36,25.21Z"/>
      <path class="cls-2" d="M725.19,658.41c-2.6,0-5.13-1.36-6.52-3.78-2.05-3.6-.81-8.18,2.79-10.23,3.95-2.26,10.47-10.22,16.66-20.35-3.02-7.86-13.55-17.03-17.44-19.96l-3.81-2.87,.98-4.67c5.77-27.41,26.64-50.6,27.52-51.58,2.79-3.07,7.53-3.29,10.59-.5,3.06,2.79,3.29,7.52,.51,10.59h0c-.18,.2-16.74,18.67-22.86,40.21,5.62,4.82,15.44,14.31,18.91,24.5,1.31,3.86,.84,8.1-1.31,11.64-5.63,9.27-14.06,21.31-22.3,26.02-1.17,.67-2.45,.99-3.71,.99Z"/>
      <path class="cls-4" d="M260.08,398.85c-7.46,6.55-46.93,41.93-59.69,67.71-1.46,2.96,.97,6.35,4.24,5.97,23.29-2.73,99.02-12.65,142.29-30.42,2.02-.83,4.32,.03,5.3,1.98,10.38,20.54,65.14,125.11,108.83,134.86,1.86,.42,3.77-.49,4.64-2.19,8.38-16.51,52.99-102.32,80.48-113.13,1.49-.59,3.19-.23,4.36,.87,16.54,15.67,145.06,135.74,201.56,136.34,2.83,.03,4.82-2.79,3.94-5.48-6.1-18.55-28.08-82.31-47.84-100.95-.34-.32-.74-.58-1.17-.77l-206.26-91.6c-.51-.23-1.07-.35-1.63-.36l-236.24-3.88c-1.04-.02-2.05,.35-2.83,1.04Z"/>
      <path class="cls-5" d="M780.32,545.16c-9.45-18.03-23.95-31.12-40.53-34.96-9.66-2.24-19.54-1.28-29.01,2.32-220.56-129.04-486.14-97.45-486.14-97.45,0,0,20.4-57.96,93.39-121.29,72.99-63.33,184.62-66.55,216.82-62.26,23.91,3.19,78.02,11.12,136.12,55.44,3.09,2.36,6.19,4.82,9.29,7.38,17.15,14.16,34.52,31.6,51.45,53.11,6.21,7.89,11.73,15.84,16.62,23.77,2.12,3.42,4.11,6.84,6,10.26,4.95,8.97,9.14,17.89,12.67,26.69,8.33,20.73,13.02,40.75,15.43,58.96,4.75,35.99,.56,64.86-2.11,78.03Z"/>
      <path class="cls-2" d="M483.28,314.06c-.82,1.87-2.22,3.24-4.21,4.07-1.22,.51-2.66,.87-4.34,1.08-1.67,.2-3.55,0-5.61-.64-1.62-.5-3.16-1.26-4.61-2.27-1.46-1.01-2.65-2.22-3.59-3.62-1.21-1.79-1.62-3.72-1.26-5.76,.36-2.05,1.07-4.75,2.13-8.12,4.54-14.5,8.88-29.12,13.02-43.86,.61-2.17,1.12-3.93,1.54-5.28,.42-1.35,.86-2.47,1.32-3.36,.46-.88,1.01-1.59,1.64-2.13,.63-.54,1.46-1.07,2.48-1.62,.92-.5,1.85-.83,2.76-1,.92-.17,1.99-.19,3.23-.06,1.23,.12,2.67,.37,4.32,.71,1.65,.35,3.67,.78,6.06,1.27,5.77,1.18,11.56,2.14,17.37,2.87,3.15,.4,6.01,.74,8.57,1.08,2.56,.33,4.9,.75,7.03,1.28,2.13,.53,4.06,1.22,5.79,2.09,1.73,.87,3.36,1.98,4.88,3.34,1.81,1.66,3.31,3.91,4.51,6.77,1.2,2.86,1.38,6.81,.5,11.84-.17,.98-.51,2.4-1.01,4.28-.51,1.88-1.41,3.89-2.72,6.03-1.31,2.13-3.13,4.28-5.48,6.4-2.35,2.12-5.46,3.88-9.32,5.21-2.03,.7-4.18,1.17-6.44,1.42-2.27,.24-4.49,.33-6.65,.26-2.17-.07-4.23-.23-6.18-.48-1.95-.25-3.64-.5-5.05-.73-4.77-.8-9.52-1.74-14.25-2.82-1.22,4.55-2.45,9.09-3.7,13.63-.98,3.54-1.88,6.25-2.7,8.12Zm18.81-34.25c.91,.16,1.82,.32,2.73,.47,1.13,.19,2.29,.32,3.48,.38,1.2,.07,2.4,.09,3.61,.07,1.21-.02,2.29-.17,3.24-.43,1.9-.52,3.59-1.46,5.08-2.81,1.48-1.35,2.44-3.07,2.87-5.13,.35-1.69,.24-3.33-.34-4.92-.58-1.59-1.67-2.94-3.25-4.08-.89-.69-2.21-1.25-3.94-1.69-1.73-.44-4.67-.92-8.81-1.59-2.83-.46-5.65-.97-8.47-1.54-1.59,6.53-3.22,13.05-4.89,19.55,2.88,.63,5.78,1.2,8.67,1.72Z"/>
      <path class="cls-4" d="M388.67,375.06s-9.95-29.17-11.42-56.45c-.16-2.91,1.96-5.44,4.84-5.86,13.44-1.98,52.06-4.61,93.22,20.68,1.48,.91,3.28,1.12,4.91,.53,7.54-2.7,29.83-10.23,41.72-9.52,1.83,.11,3.5,1.09,4.47,2.65,2.59,4.17,7.93,13.44,9.4,21.29,.46,2.48,2.4,4.41,4.91,4.7,5.25,.61,13.83,2.05,19.1,5.19,2.23,1.33,3.17,4.06,2.38,6.53-2.99,9.39-13.32,33.27-39.54,26.78"/>
      <path class="cls-2" d="M378.57,364.68l-10.05,53.26s98.4,9.1,156.35,23.81c15.54,3.94,31.14-6.18,33.75-22h0c2.38-14.39-6.97-28.11-21.23-31.16-34.1-7.29-97.47-19.46-158.82-23.91Z"/>
      <circle class="cls-5" cx="529.3" cy="413.75" r="17.92"/>
      <path class="cls-4" d="M754.33,381.48c-1.81,3.08-4.05,5.91-6.72,8.41-19.78,18.51-55.75,12.2-80.35-14.09-24.59-26.28-28.5-62.59-8.73-81.1,3.65-3.42,7.86-5.99,12.44-7.74,3.09,2.36,6.19,4.82,9.29,7.38,17.15,14.16,34.52,31.6,51.45,53.11,6.21,7.89,11.73,15.84,16.62,23.77,2.12,3.42,4.11,6.84,6,10.26Z"/>
      <path class="cls-2" d="M748.33,371.22c-1.76,4.22-4.33,8.02-7.72,11.2-16.67,15.59-46.99,10.28-67.72-11.88-20.74-22.16-24.03-52.76-7.36-68.36,4.18-3.91,9.21-6.5,14.73-7.84,17.15,14.16,34.52,31.6,51.45,53.11,6.21,7.89,11.73,15.84,16.62,23.77Z"/>
      <path class="cls-4" d="M643.22,457.29c-.49-.3-.8-.5-.93-.59l.02-.04c.29,.22,.6,.43,.91,.63Z"/>
      <path class="cls-4" d="M782.43,467.13c-7.47,3.12-15.1,5.64-22.89,7.56-12.7,3.14-24.86,4.41-36.21,4.41-38.09,0-67.06-14.3-77.19-20.08-.03-.02-.07-.03-.1-.05-1.04-.59-1.88-1.1-2.5-1.48-.09-.04-.17-.1-.25-.15-.02-.01-.05-.03-.07-.05-.31-.2-.62-.41-.91-.63-11.8-8.56-15.83-24.73-8.86-38.09,7.67-14.69,25.73-20.4,40.35-12.77,.52,.27,1.03,.56,1.53,.86l.02-.03-.08-.06c2.65,1.65,32.69,19.45,70.74,9.66,7.13-1.83,14.13-4.52,20.99-8.06,8.33,20.73,13.02,40.75,15.43,58.96Z"/>
      <path class="cls-4" d="M646.04,458.97c-.96-.5-1.87-1.04-2.75-1.63,.64,.39,1.56,.95,2.75,1.63Z"/>
      <rect class="cls-2" x="657.74" y="440.05" width="60.41" height="8" transform="translate(148.75 1060.27) rotate(-81.66)"/>
      <rect class="cls-2" x="743.42" y="416.63" width="8" height="60.08" transform="translate(-87.81 200.61) rotate(-14.45)"/>
      <path class="cls-2" d="M723.33,482.1c-38.52,0-67.73-14.24-78.59-20.42-.07-.03-.14-.07-.21-.11-1.01-.58-1.84-1.08-2.47-1.46-.12-.07-.24-.14-.35-.21-.08-.05-.16-.1-.24-.16-.34-.22-.67-.45-.98-.69-13.02-9.45-17.22-27.46-9.71-41.87,8.42-16.12,28.34-22.42,44.4-14.04,.55,.29,1.1,.6,1.64,.92l.03-.04c1.25,.78,31.01,18.92,68.41,9.3,6.88-1.76,13.72-4.4,20.36-7.82l2.75,5.33c-7.04,3.63-14.31,6.42-21.62,8.3-34.09,8.77-61.63-3.72-70.42-8.49l-.04,.05-2.51-1.47c-.45-.27-.9-.53-1.37-.77-13.13-6.85-29.42-1.7-36.31,11.5-6.15,11.79-2.73,26.52,7.96,34.27,.28,.21,.53,.38,.78,.54l.26,.16c.58,.36,1.37,.83,2.33,1.38,.07,.03,.14,.07,.2,.11,10.38,5.92,38.52,19.68,75.69,19.68,11.95,0,23.89-1.45,35.49-4.32,7.61-1.88,15.16-4.37,22.45-7.42l2.31,5.54c-7.58,3.17-15.42,5.76-23.33,7.71-12.07,2.98-24.49,4.5-36.93,4.5Z"/>
    </g>
  </g>
  <g id="Tipo">
    <text class="cls-3" transform="translate(85.68 762) rotate(53.57)"><tspan x="0" y="0">P</tspan></text>
    <text class="cls-3" transform="translate(134.27 826.35) rotate(43.34)"><tspan x="0" y="0">R</tspan></text>
    <text class="cls-3" transform="translate(193.95 881.16) rotate(33.48)"><tspan x="0" y="0">E</tspan></text>
    <text class="cls-3" transform="translate(258.52 924.9) rotate(20.96)"><tspan x="0" y="0">M</tspan></text>
    <text class="cls-3" transform="translate(368.53 962.57) rotate(10.85)"><tspan x="0" y="0">I</tspan></text>
    <text class="cls-3" transform="translate(407.82 971.47) rotate(2.35)"><tspan x="0" y="0">U</tspan></text>
    <text class="cls-3" transform="translate(507.52 975.16) rotate(-11.5)"><tspan x="0" y="0">M</tspan></text>
  </g>
</svg>