<?xml version="1.0" encoding="UTF-8"?>
<svg xmlns="http://www.w3.org/2000/svg" viewBox="0 0 1000 1000">
  <defs>
    <style>
      .cls-1 {
        fill: #f2e6c9;
      }

      .cls-2, .cls-3 {
        fill: #685d49;
      }

      .cls-4 {
        fill: #fff3e3;
      }

      .cls-5 {
        fill: #bcb2a6;
      }

      .cls-6 {
        fill: #d8c9b6;
      }

      .cls-3 {
        font-family: Quicksand-Bold, 'Quicksand Bold';
        font-size: 132.29px;
        font-variation-settings: ';
      }
    </style>
  </defs>
  <g id="Fondo_Lin" data-name="Fondo Lin">
    <path class="cls-2" d="M799.96,164.08c-38.36-19.86-85.72-4.81-105.58,33.55l-21.33,41.2c-11.21-6.33-22.79-12.13-34.58-17.34-22.96-10.13-46.61-17.97-70.55-23.41,14.8-36.22-.28-78.55-35.68-96.88-18.16-9.4-38.88-11.17-58.37-4.98-19.48,6.19-35.39,19.6-44.79,37.76l-36.63,70.76c-39.77,13.8-73.12,36.3-97.07,65.48-.58,.12-1.14,.25-1.7,.38-2.78,.66-5.32,1.92-7.57,3.75-4.11,3.34-25.5,21.15-43.44,43.69-25.59,32.15-33.6,60.23-23.81,83.47,1.14,2.69,2.87,5.06,5.05,6.94,.25,.31,.52,.64,.81,.98-.02,.05-.05,.1-.07,.15-39.18,86.87-47.96,130.98-55.01,166.43-4.06,20.42-7.27,36.55-15.66,56.14-2.11,4.92-1.68,10.45,1.18,15.17,6.54,10.78,27.43,16.01,32.18,16.37,8.2,.62,16.16,.13,23.8-1.47,13.26,35.82,34.57,67.35,63.48,93.91,32.76,30.09,73.75,52.34,121.85,66.13,31.65,9.08,63.91,13.68,95.12,13.68,14.35,0,28.48-.97,42.23-2.93,40.92-5.83,78.88-20.47,110.42-42.49,15.31,8.27,34.74,16.65,52.62,18.09,5.52,.45,10.94-1.57,14.87-5.55,4.03-4.08,8.87-9.54,12.63-15.46,9.68,2.26,22.51,4.72,33.93,5.17,8.73,.36,16.7-5.55,18.93-14.02,3.06-11.64,7.89-31.52,9.54-46.56,10.96-3.95,23.14-9.08,29.78-14.31,5.18-4.08,7.87-10.66,7.03-17.18-1.32-10.33-5.74-42.18-12.83-68.64,1.37-1.56,2.5-3.35,3.32-5.33h0c6.42-15.56,21.44-57.17,22.42-107.44,.07-3.68-.91-7.27-2.85-10.39,7.94-52.48-6.39-109.03-40.73-160.8l40.61-78.44c9.62-18.58,11.43-39.8,5.09-59.74-6.34-19.94-20.06-36.22-38.64-45.84Z"/>
  </g>
  <g id="Vector">
    <g>
      <path class="cls-5" d="M485.99,104.95h0c33.96,0,61.54,27.58,61.54,61.54v109.59h-123.08v-109.59c0-33.96,27.58-61.54,61.54-61.54Z" transform="translate(142 -202.11) rotate(27.37)"/>
      <ellipse class="cls-6" cx="544.71" cy="434.01" rx="217.28" ry="286" transform="translate(-72.23 757.2) rotate(-66.2)"/>
      <path class="cls-6" d="M797.3,623.39s-13.94,2.63-22.41-4.98l14.77-15.42,8.91,9.12-1.26,11.28Z"/>
      <path class="cls-6" d="M234.64,397.73s6.49,10.97,27.52,16.47l4.21-44.65-31.73,28.19Z"/>
      <path class="cls-2" d="M301.62,419.87s-2.31,237.33-113.14,228.88c-5.69-.43-22.26-7.08-20.72-10.68,23.83-55.64,8.7-85.15,70.56-222.3l63.3,4.11Z"/>
      <path class="cls-2" d="M629.35,763.91c9.67,6.63,42.13,27.61,68.71,29.76,1.11,.09,2.19-.34,2.98-1.14,3.14-3.19,11.26-11.89,13.86-19.27,.65-1.85,2.65-2.85,4.55-2.34,7.57,2.01,25.11,6.3,39.43,6.86,1.78,.07,3.37-1.12,3.82-2.85,2.36-8.99,9.31-36.58,9.61-50.99,.03-1.61,1.07-3.02,2.6-3.53,6.86-2.29,25.25-8.75,32.35-14.33,1.06-.83,1.6-2.15,1.43-3.49-1.56-12.18-10.54-77.93-24.47-96.97-1.16-1.58-3.34-2-5.02-.99l-96.86,57.96c-.57,.34-1.05,.83-1.37,1.42l-52.78,94.9c-.96,1.72-.44,3.89,1.18,5Z"/>
      <path class="cls-1" d="M721.39,655c-40.27,140.43-180.37,193.13-320.8,152.86-140.43-40.27-214.47-156.23-182.84-298.86,45.37-204.63,181.87-221.46,322.3-181.19,140.43,40.27,221.62,186.76,181.35,327.19Z"/>
      <path class="cls-1" d="M789.03,617.9c-11.58,50.03-56.09,81.58-91.18,73.46-35.09-8.12-54.14-55.26-42.56-105.29,11.58-50.03,49.42-83.99,84.51-75.87,35.09,8.12,60.82,57.67,49.24,107.7Z"/>
      <path class="cls-2" d="M349,528.11h0s.01,0,.01,0c-1.78-14.69-6.37-25.54-10.73-32.9,0,0-4.23-8.47-11.56-13.42-21.74-14.07-38.78-7.86-51.12-1.1-13.3,7.3-21.35,18.1-21.69,18.55-1.96,2.67-1.4,6.41,1.26,8.38,1.07,.8,2.32,1.18,3.56,1.18,1.84,0,3.65-.84,4.83-2.42,.08-.11,.33-.43,.71-.9,.17-.22,.36-.44,.55-.67,.05-.06,.09-.11,.15-.17,6.18-7.08,21.14-15.82,30.75-14.89-16.53,9.61-30.7,32.73-35.6,61.39-6.93,40.54,7.3,76.79,31.77,80.97,24.47,4.18,49.93-25.29,56.86-65.83,2.32-13.55,2.26-26.62,.25-38.17Z"/>
      <path class="cls-2" d="M610.2,563.79h0s.01,0,.01,0c-1.78-14.69-6.37-25.54-10.73-32.9,0,0-4.23-8.47-11.56-13.42-21.74-14.07-38.78-7.86-51.12-1.1-13.3,7.3-21.35,18.1-21.69,18.55-1.96,2.67-1.4,6.41,1.26,8.38,1.07,.8,2.32,1.18,3.56,1.18,1.84,0,3.65-.84,4.83-2.42,.08-.11,.33-.43,.71-.9,.17-.22,.36-.44,.55-.67,.05-.06,.09-.11,.15-.17,6.18-7.08,21.14-15.82,30.75-14.89-16.53,9.61-30.7,32.73-35.6,61.39-6.93,40.54,7.3,76.79,31.77,80.97,24.47,4.18,49.93-25.29,56.86-65.83,2.32-13.55,2.26-26.62,.25-38.17Z"/>
      <path class="cls-2" d="M427.89,741.51c-7.15,0-14.86-.94-23.17-2.81-36.17-8.16-49.19-42.01-49.73-43.45-1.45-3.88,.52-8.2,4.4-9.65,3.88-1.44,8.18,.52,9.64,4.38,.12,.31,10.89,27.75,38.98,34.08,27.18,6.13,44.74,1.08,56.94-16.36,2.38-3.39,7.05-4.22,10.45-1.85,3.39,2.38,4.22,7.05,1.85,10.45-11.8,16.86-28.06,25.21-49.36,25.21Z"/>
      <path class="cls-2" d="M725.19,658.41c-2.6,0-5.13-1.36-6.52-3.78-2.05-3.6-.81-8.18,2.79-10.23,3.95-2.26,10.47-10.22,16.66-20.35-3.02-7.86-13.55-17.03-17.44-19.96l-3.81-2.87,.98-4.67c5.77-27.41,26.64-50.6,27.52-51.58,2.79-3.07,7.53-3.29,10.59-.5,3.06,2.79,3.29,7.52,.51,10.59h0c-.18,.2-16.74,18.67-22.86,40.21,5.62,4.82,15.44,14.31,18.91,24.5,1.31,3.86,.84,8.1-1.31,11.64-5.63,9.27-14.06,21.31-22.3,26.02-1.17,.67-2.45,.99-3.71,.99Z"/>
      <path class="cls-2" d="M725.18,550.02s-46.78,188.19-122.09,224.44c-5.14,2.47-13.08-.09-11.7-3.76,13.54-35.99,67.69-182.83,52.7-220.68h81.09Z"/>
      <path class="cls-2" d="M731.71,533.25s-19.19,55.45-31.93,67.56c0,0-59.75-24.54-64.54-29.32,0,0-42.23-96.4-66.13-112.34,0,0-54.27,22.76-84.45,54.18,0,0-210.34-40.63-250.17-88.44,0,0,19.12-50.99,49.4-71.71l54.97-42.94,137.4,24.38,203.91,81.13,51.55,78.45v39.04Z"/>
      <path class="cls-4" d="M232.68,395.69c.85,2.03,3.2,2.98,5.23,2.14,20.68-8.61,135-47.08,345.01,48.5,106.17,49.74,191.11,151.38,210.41,175.64,1.91,2.4,5.68,1.87,6.85-.96,6.1-14.78,20.36-54.27,21.29-102.02,.02-.81-.21-1.6-.65-2.28-9.37-14.38-116.98-172.63-337.72-211.71-68.73-13.06-150.73-28.23-185.94-19.8-.59,.14-1.12,.41-1.59,.79-8.05,6.55-80.77,67.28-62.89,109.69Z"/>
      <path class="cls-6" d="M753.72,167.82h0c34.96,0,63.33,28.38,63.33,63.33v107.79h-126.67v-107.79c0-34.96,28.38-63.33,63.33-63.33Z" transform="translate(200.88 -318.17) rotate(27.37)"/>
      <circle class="cls-2" cx="483.1" cy="236.68" r="14.02"/>
      <circle class="cls-2" cx="597.68" cy="267.4" r="14.02"/>
      <path class="cls-2" d="M500.28,261.03s-.01-.04-.02-.06c0-.01,0-.03-.01-.04,.01,.03,.02,.07,.03,.1Z"/>
      <path class="cls-2" d="M569.1,293.76c-5.15,1.95-9.95,2.78-14.37,2.78-13.43,0-23.32-7.67-28.84-14.73-12.19,2.24-22.14,1.04-29.61-3.59-7.82-4.83-10.08-11.78-10.55-13.54-.27-.76-.41-1.58-.41-2.44,0-4.16,3.37-7.53,7.53-7.53,3.7,0,6.79,2.68,7.4,6.22,.01,.01,.01,.03,.01,.04,.01,.04,.02,.08,.01,.12h.02s0-.02-.01-.06c1.34,4.15,8.49,9.75,27.2,5.09,3.32-.83,6.8,.71,8.42,3.73,.94,1.69,9.88,16.69,27.89,9.88,3.88-1.46,8.21,.49,9.67,4.37,1.47,3.87-.49,8.2-4.36,9.66Z"/>
    </g>
  </g>
  <g id="Tipo">
    <text class="cls-3" transform="translate(82.53 756.94) rotate(54.28)"><tspan x="0" y="0">R</tspan></text>
    <text class="cls-3" transform="translate(130.75 822.07) rotate(44.42)"><tspan x="0" y="0">E</tspan></text>
    <text class="cls-3" transform="translate(185.17 875.31) rotate(33.53)"><tspan x="0" y="0">G</tspan></text>
    <text class="cls-3" transform="translate(264.85 924.95) rotate(25)"><tspan x="0" y="0">I</tspan></text>
    <text class="cls-3" transform="translate(299.71 941.87) rotate(17.9)"><tspan x="0" y="0">S</tspan></text>
    <text class="cls-3" transform="translate(371.15 964.11) rotate(8.31)"><tspan x="0" y="0">T</tspan></text>
    <text class="cls-3" transform="translate(446.08 974.4) rotate(-1.54)"><tspan x="0" y="0">R</tspan></text>
    <text class="cls-3" transform="translate(529.65 971.94) rotate(-13.38)"><tspan x="0" y="0">O</tspan></text>
  </g>
</svg>