<?xml version="1.0" encoding="UTF-8"?>
<svg xmlns="http://www.w3.org/2000/svg" viewBox="0 0 1000 1000">
  <defs>
    <style>
      .cls-1 {
        fill: #f2e6c9;
      }

      .cls-2, .cls-3 {
        fill: #685d49;
      }

      .cls-4 {
        fill: #fff3e3;
      }

      .cls-5 {
        fill: #eacc9c;
      }

      .cls-6 {
        fill: #d8c9b6;
      }

      .cls-3 {
        font-family: Quicksand-Bold, 'Quicksand Bold';
        font-size: 132.29px;
        font-variation-settings: ';
      }
    </style>
  </defs>
  <g id="Fondo_Lin" data-name="Fondo Lin">
    <path class="cls-2" d="M860.48,494.55c-.29-.08-26.48-7.35-70.91-18.2l3.05-12.4c1.47-5.99,.51-12.15-2.36-17.27l41.39-130.27c4.01-12.64-2.02-26.42-14.01-32.05-16.36-7.68-47.7-21.06-63.57-27.78,.12-6.91-.05-16.32-1.27-26.15-3.66-29.6-14.67-47.78-32.72-54.03-17.29-5.98-37.91,.18-61.29,18.29-8.04,6.23-14.99,12.78-19.87,17.71-79.82-30.68-194.05-38.23-227.46-39.83-2.79-5.63-6.92-13.27-12.12-20.94-15.16-22.38-31.59-33.72-48.84-33.72-37.83,0-60.3,51.99-62.74,57.91-.17,.42-.33,.85-.46,1.28l-43.14,139.73c-9.21,1.59-16.89,8.58-19.04,18.08l-9.79,43.11c-18.27-1.66-36.54-3.14-54.47-4.42-7.42-.53-14.06,4.43-15.7,11.66l-8.17,36.19c-.91,4.04-.11,8.28,2.21,11.71,2.32,3.43,5.96,5.75,10.05,6.4l18.94,3.04c-10.13,11.36-17.64,23.44-22.42,36.1-1.84,4.86-1.03,10.33,2.14,14.45,2.51,3.26,6.22,5.31,10.22,5.76-3.51,12.25-5.33,25.01-5.33,37.79,0,23.93,6.16,47.09,17.91,67.66l-12.84,14.18c-3.68,4.06-4.85,9.79-3.06,14.97,.15,.43,1.1,3.1,2.96,6.77-4.8,16.85-3.33,32.67,4.36,46.09,12.81,22.37,39.47,33.96,81.39,35.33,35.18,47.2,87.89,81.88,152.96,100.54,31.82,9.12,63.82,13.71,94.88,13.71,22.97,0,45.43-2.51,66.89-7.54,48.5-11.37,90.6-35.36,122.42-69.62,10.82,3.15,20.17,3.83,21.49,3.91,2.64,.16,5.28-.37,7.65-1.55,11.2-5.6,15.9-15.85,17.79-24.79h4.13c3.94,0,7.71-1.55,10.52-4.31,4.6-4.53,10.52-13.37,11.29-38.22,2.77-1.75,5.48-3.66,8.12-5.71,5.11,1.71,10.74,.54,14.76-3.06,1.75-1.57,17.36-16.08,27.83-43.57,8.11-21.28,14.24-54.11,2.74-96.4l40.04,6.42c7.65,1.23,14.99-3.58,16.91-11.1l7.08-27.72c2.02-7.91-2.65-15.98-10.51-18.16ZM212.7,666.31c-2.13-.89-3.67-1.77-4.76-2.52l2.72-2.89c.66,1.81,1.34,3.61,2.04,5.41Z"/>
  </g>
  <g id="Vector">
    <g>
      <path class="cls-6" d="M252.17,706.87c-41.06,0-66.33-9.18-77.05-27.93-13.47-23.53,3.94-50.75,4.68-51.9l16.76,10.92-8.38-5.46,8.4,5.43c-.12,.18-11.51,18.25-4.07,31.13,4.39,7.6,19.76,19.97,73.34,17.47l.93,19.98c-5.07,.24-9.94,.35-14.61,.36Z"/>
      <path class="cls-4" d="M196.32,598.43l-27.36,30.2s7.96,23.06,27.36,25.62l26.31-27.91-26.31-27.91Z"/>
      <path class="cls-6" d="M738.05,673.91s3.3,37.98-6.34,47.47h-18.08s2.11,20.04-10.55,26.37c0,0-33.76-2.11-43.25-20.04l16.88-59.52,61.34,5.72Z"/>
      <path class="cls-1" d="M721.39,655c-40.27,140.43-180.37,193.13-320.8,152.86-140.43-40.27-214.47-156.23-182.84-298.86,45.37-204.63,181.87-221.46,322.3-181.19,140.43,40.27,221.62,186.76,181.35,327.19Z"/>
      <path class="cls-1" d="M789.03,617.9c-11.58,50.03-56.09,81.58-91.18,73.46-35.09-8.12-54.14-55.26-42.56-105.29,11.58-50.03,49.42-83.99,84.51-75.87,35.09,8.12,60.82,57.67,49.24,107.7Z"/>
      <path class="cls-2" d="M349,528.11h0s.01,0,.01,0c-1.78-14.69-6.37-25.54-10.73-32.9,0,0-4.23-8.47-11.56-13.42-21.74-14.07-38.78-7.86-51.12-1.1-13.3,7.3-21.35,18.1-21.69,18.55-1.96,2.67-1.4,6.41,1.26,8.38,1.07,.8,2.32,1.18,3.56,1.18,1.84,0,3.65-.84,4.83-2.42,.08-.11,.33-.43,.71-.9,.17-.22,.36-.44,.55-.67,.05-.06,.09-.11,.15-.17,6.18-7.08,21.14-15.82,30.75-14.89-16.53,9.61-30.7,32.73-35.6,61.39-6.93,40.54,7.3,76.79,31.77,80.97,24.47,4.18,49.93-25.29,56.86-65.83,2.32-13.55,2.26-26.62,.25-38.17Z"/>
      <path class="cls-2" d="M610.2,563.79h0s.01,0,.01,0c-1.78-14.69-6.37-25.54-10.73-32.9,0,0-4.23-8.47-11.56-13.42-21.74-14.07-38.78-7.86-51.12-1.1-13.3,7.3-21.35,18.1-21.69,18.55-1.96,2.67-1.4,6.41,1.26,8.38,1.07,.8,2.32,1.18,3.56,1.18,1.84,0,3.65-.84,4.83-2.42,.08-.11,.33-.43,.71-.9,.17-.22,.36-.44,.55-.67,.05-.06,.09-.11,.15-.17,6.18-7.08,21.14-15.82,30.75-14.89-16.53,9.61-30.7,32.73-35.6,61.39-6.93,40.54,7.3,76.79,31.77,80.97,24.47,4.18,49.93-25.29,56.86-65.83,2.32-13.55,2.26-26.62,.25-38.17Z"/>
      <path class="cls-2" d="M427.89,741.51c-7.15,0-14.86-.94-23.17-2.81-36.17-8.16-49.19-42.01-49.73-43.45-1.45-3.88,.52-8.2,4.4-9.65,3.88-1.44,8.18,.52,9.64,4.38,.12,.31,10.89,27.75,38.98,34.08,27.18,6.13,44.74,1.08,56.94-16.36,2.38-3.39,7.05-4.22,10.45-1.85,3.39,2.38,4.22,7.05,1.85,10.45-11.8,16.86-28.06,25.21-49.36,25.21Z"/>
      <path class="cls-2" d="M725.19,658.41c-2.6,0-5.13-1.36-6.52-3.78-2.05-3.6-.81-8.18,2.79-10.23,3.95-2.26,10.47-10.22,16.66-20.35-3.02-7.86-13.55-17.03-17.44-19.96l-3.81-2.87,.98-4.67c5.77-27.41,26.64-50.6,27.52-51.58,2.79-3.07,7.53-3.29,10.59-.5,3.06,2.79,3.29,7.52,.51,10.59h0c-.18,.2-16.74,18.67-22.86,40.21,5.62,4.82,15.44,14.31,18.91,24.5,1.31,3.86,.84,8.1-1.31,11.64-5.63,9.27-14.06,21.31-22.3,26.02-1.17,.67-2.45,.99-3.71,.99Z"/>
      <path class="cls-6" d="M236.8,411.23s-59.08,25.32-77.01,72.79c0,0,124.48-12.66,163.52-48.53,0,0,69.63,113.15,160.35,153.1,0,0,40.09-118.29,37.98-134.11l49.58,12.66s112.88,178.29,195.16,206.77c0,0,64.35-57.64,10.55-164.91"/>
      <path class="cls-2" d="M769.44,462.65l47.91-150.79c1.75-5.52-.85-11.48-6.09-13.94-21.99-10.31-72.67-31.6-72.67-31.6,0,0,5.97-65.58-23.42-75.75-29.4-10.18-72.36,39.57-72.36,39.57-90.45-38.44-241.12-42.97-241.12-42.97,0,0-22.32-54.27-51.2-54.27s-48.88,48.62-48.88,48.62l-53.41,172.99,521.24,108.13Z"/>
      <path class="cls-5" d="M225.2,402.24l14.53-63.99c.97-4.27,4.97-7.15,9.33-6.7,54.59,5.63,387.26,42.58,524.84,119.2,3.4,1.89,5.09,5.84,4.16,9.62l-7.84,31.87c-1.08,4.39-5.35,7.21-9.81,6.48L232.26,412.71c-4.93-.8-8.16-5.6-7.06-10.47Z"/>
      <path class="cls-2" d="M151.61,424.77l697.78,111.95,7.07-27.72s-342.51-95.25-696.67-120.41l-8.18,36.18Z"/>
      <path class="cls-5" d="M289.73,658.67c-67.25,0-121.95-54.71-121.95-121.95s54.71-121.95,121.95-121.95,121.95,54.71,121.95,121.95-54.71,121.95-121.95,121.95Zm0-223.91c-56.22,0-101.95,45.74-101.95,101.95s45.74,101.95,101.95,101.95,101.95-45.74,101.95-101.95-45.74-101.95-101.95-101.95Z"/>
      <circle class="cls-4" cx="409.45" cy="236.68" r="14.02"/>
      <circle class="cls-4" cx="583.66" cy="266.29" r="14.02"/>
      <path class="cls-4" d="M366.29,273.79c-1.39,0-2.8-.39-4.06-1.2l-45.88-29.61c-3.48-2.25-4.48-6.89-2.23-10.37,2.25-3.48,6.89-4.48,10.37-2.23l45.88,29.61c3.48,2.25,4.48,6.89,2.23,10.37-1.43,2.22-3.85,3.43-6.31,3.43Z"/>
      <path class="cls-4" d="M604.43,317.75c-3.89,0-7.17-3-7.47-6.94-.31-4.13,2.78-7.73,6.91-8.04l82.98-6.27c4.13-.31,7.73,2.78,8.04,6.91,.31,4.13-2.78,7.73-6.91,8.04l-82.98,6.27c-.19,.01-.38,.02-.57,.02Z"/>
      <path class="cls-4" d="M636.27,360.73c-1.2,0-2.42-.29-3.55-.9l-35.08-18.89c-3.65-1.96-5.01-6.51-3.05-10.16s6.51-5.01,10.16-3.05l35.08,18.89c3.65,1.96,5.01,6.51,3.05,10.16-1.35,2.52-3.94,3.95-6.61,3.95Z"/>
      <path class="cls-4" d="M320.41,302.72c-3.76,0-7-2.82-7.44-6.65-.47-4.12,2.48-7.83,6.6-8.3l43.18-4.94c4.11-.47,7.83,2.48,8.3,6.6,.47,4.12-2.48,7.83-6.6,8.3l-43.18,4.94c-.29,.03-.58,.05-.86,.05Z"/>
      <path class="cls-4" d="M530.5,293.34c-6.29,3.16-12.2,4.44-17.6,4.44-11.67,0-20.96-5.99-26.62-11.86-11.89,3.49-21.91,3.33-29.82-.49-7.71-3.73-10.82-9.77-11.73-11.96-.69-1.14-1.08-2.47-1.08-3.9,0-4.21,3.41-7.62,7.62-7.62,3.7,0,6.79,2.64,7.48,6.13,1.91,3.96,9.64,8.55,27.48,2.07,3.23-1.17,6.84,0,8.77,2.85,1.11,1.58,11.55,15.57,28.77,6.93,3.7-1.86,8.21-.36,10.06,3.34,1.86,3.7,.37,8.21-3.33,10.07Z"/>
    </g>
  </g>
  <g id="Tipo">
    <text class="cls-3" transform="translate(126.23 816.92) rotate(45.25)"><tspan x="0" y="0">T</tspan></text>
    <text class="cls-3" transform="translate(178.47 867.51) rotate(38.21)"><tspan x="0" y="0">I</tspan></text>
    <text class="cls-3" transform="translate(208.49 891.9) rotate(31.19)"><tspan x="0" y="0">E</tspan></text>
    <text class="cls-3" transform="translate(273.83 931.44) rotate(20.07)"><tspan x="0" y="0">N</tspan></text>
    <text class="cls-3" transform="translate(368.22 964.42) rotate(7.25)"><tspan x="0" y="0">D</tspan></text>
    <text class="cls-3" transform="translate(465.81 975.39) rotate(-4.62)"><tspan x="0" y="0">A</tspan></text>
  </g>
</svg>