<?xml version="1.0" encoding="UTF-8"?>
<svg xmlns="http://www.w3.org/2000/svg" viewBox="0 0 1000 1000">
  <defs>
    <style>
      .cls-1 {
        fill: #03a9f4;
      }

      .cls-2 {
        fill: #fff;
      }

      .cls-3 {
        fill: #fff3e3;
      }

      .cls-4 {
        fill: #d8c9b6;
      }

      .cls-5 {
        fill: #685d49;
        stroke: #685d49;
        stroke-linejoin: round;
        stroke-width: 30px;
      }
    </style>
  </defs>
  <g id="Fondo_Lin" data-name="Fondo Lin">
    <polygon class="cls-4" points="687.06 798.7 674.38 786.01 688.97 776.36 687.06 798.7"/>
    <path class="cls-5" d="M828.93,230.64l-41.85-5.31c-9.75,22.03-31.78,37.4-57.42,37.4-14.11,0-27.12-4.66-37.6-12.52-5.9-7.88-9.99-17.19-11.65-27.33l-12.69-12.69-47.46-6.01c-11.12,17.55-30.72,29.2-53.04,29.2-14.09,0-27.09-4.65-37.57-12.49-4.11-5.49-7.35-11.66-9.5-18.33l-12.69-12.69-50.28-6.37c-11.34,16.33-30.23,27.02-51.61,27.02-14.09,0-27.1-4.65-37.57-12.5-3.59-4.8-6.53-10.13-8.64-15.85l-12.69-12.69-37.04-4.69L124.73,703.85l12.69,12.69,41.54,6.2c12.81-22.21,36.81-37.16,64.3-37.16,17.26,0,33.13,5.9,45.73,15.78,6.61,8.43,11.45,18.32,13.92,29.12l12.69,12.69,41.32,6.18c12.77-22.4,36.87-37.51,64.49-37.51,17.26,0,33.13,5.9,45.74,15.78,6.69,8.53,11.56,18.56,14,29.51l12.69,12.69,56.34,8.42c12.78-22.39,36.87-37.47,64.48-37.47,17.26,0,33.13,5.9,45.73,15.78,6.68,8.52,11.55,18.53,13.99,29.46l9.17,1.37c1.46,3.64,2.65,7.42,3.52,11.32l58.32,8.72,96.23-564.09-12.69-12.69Z"/>
  </g>
  <g id="Vector">
    <path class="cls-4" d="M841.62,243.33l-96.23,564.09-58.32-8.72c-7.4-33.15-37.01-57.93-72.4-57.93-27.61,0-51.7,15.09-64.48,37.47l-56.34-8.42c-7.39-33.17-37.01-57.98-72.43-57.98-27.62,0-51.73,15.11-64.49,37.51l-41.32-6.18c-7.54-32.98-37.07-57.58-72.34-57.58-27.48,0-51.48,14.95-64.3,37.16l-41.54-6.2L322.32,177.51l37.04,4.69c8.85,23.95,31.88,41.03,58.9,41.03,21.38,0,40.27-10.69,51.61-27.02l50.28,6.37c8.12,25.23,31.81,43.5,59.75,43.5,22.32,0,41.92-11.65,53.04-29.2l47.46,6.01c4.88,29.8,30.75,52.53,61.93,52.53,25.64,0,47.68-15.37,57.42-37.4l41.85,5.31Z"/>
    <polygon class="cls-4" points="137.42 716.54 124.73 703.85 150.52 693.99 150.52 713.66 137.42 716.54"/>
    <polygon class="cls-4" points="315.59 743.17 302.91 730.48 324.27 719.81 324.27 738.66 315.59 743.17"/>
    <polygon class="cls-4" points="493.84 769.82 481.15 757.13 515.64 750.95 493.84 769.82"/>
    <polygon class="cls-4" points="687.06 798.7 674.38 786.01 688.97 776.36 687.06 798.7"/>
    <polygon class="cls-4" points="841.62 243.33 828.93 230.64 811.09 251.84 841.62 243.33"/>
    <polygon class="cls-4" points="680.41 222.89 667.72 210.2 660.29 232.58 680.41 222.89"/>
    <polygon class="cls-4" points="520.16 202.58 507.47 189.89 495.56 212.09 520.16 202.58"/>
    <polygon class="cls-4" points="359.36 182.2 346.68 169.51 342.71 195.7 359.36 182.2"/>
    <path class="cls-3" d="M828.93,230.64l-96.23,564.09-58.32-8.72c-7.4-33.15-37.01-57.93-72.4-57.93-27.61,0-51.7,15.09-64.48,37.47l-56.34-8.42c-7.39-33.17-37.01-57.98-72.43-57.98-27.62,0-51.73,15.11-64.49,37.51l-41.32-6.18c-7.54-32.98-37.07-57.58-72.34-57.58-27.48,0-51.48,14.95-64.3,37.16l-41.54-6.2L309.63,164.82l37.04,4.69c8.85,23.95,31.88,41.03,58.9,41.03,21.38,0,40.27-10.69,51.61-27.02l50.28,6.37c8.12,25.23,31.81,43.5,59.75,43.5,22.32,0,41.92-11.65,53.04-29.2l47.46,6.01c4.88,29.8,30.75,52.53,61.93,52.53,25.64,0,47.68-15.37,57.42-37.4l41.85,5.31Z"/>
    <path class="cls-1" d="M734.7,347.53l-59.13,295.66c-3.69-.73-7.51-1.11-11.41-1.11-29.57,0-54.04,21.8-58.24,50.2l-328.45-49.1c.43-2.85,.65-5.77,.65-8.73,0-26.38-17.35-48.7-41.25-56.19l88.83-283.35c5.56,1.74,11.49,2.69,17.63,2.69,30.01,0,54.77-22.46,58.41-51.47l286.09,36.25c-.3,2.42-.46,4.9-.46,7.4,0,28.57,20.34,52.39,47.33,57.75Z"/>
    <path class="cls-2" d="M353.96,524.93c3.85,.15,7.47,1.51,11.27,2.02,21.56,2.87,42.07-.24,61.43-10.34,.67-.35,1.5-.53,2.01-1.45-2.9-.95-5.81-1.7-8.56-2.85-16.19-6.77-26.37-18.78-30.74-35.72-.79-3.07-.6-3.26,2.43-2.37,5.73,1.69,11.57,1.94,18.13,1.74-.94-.53-1.35-.78-1.78-.99-.5-.25-1.04-.42-1.53-.68-19.07-10.16-28.71-25.97-28.53-47.65,0-.96,0-1.91,.09-2.87,.26-3,.56-3.18,3-1.53,3.79,2.56,7.85,4.56,12.18,6,1.78,.59,3.62,1,6.16,1.68-3.86-3.94-6.88-7.6-9.2-11.78-6.45-11.63-8.42-23.88-5.28-36.91,1.54-6.37,4.18-12.17,7.99-17.48,1.69-2.36,1.77-2.41,3.32,.08,6.92,11.09,15.18,21.08,24.84,29.87,16.48,15,35.38,25.69,56.9,31.64,2.84,.78,5.72,1.41,8.56,2.17,2.01,.53,2.76-.17,2.71-2.24-.21-9.29,1.89-18.07,6.66-26.04,9.86-16.49,24.47-25.29,43.72-25.43,16.4-.12,29.75,6.72,39.93,19.56,1.2,1.51,2.46,1.68,4.12,1.54,9.51-.79,18.72-2.87,27.66-6.22,.74-.28,1.7-1.15,2.36-.3,.5,.65-.35,1.47-.72,2.14-5.05,9.02-12.22,15.84-21.46,20.47-.41,.2-.8,.43-1.6,.87,9.66,.14,18.66-1.22,27.47-3.45,.52,.97-.14,1.26-.48,1.62-7.17,7.57-15.09,14.2-24.33,19.12-2.02,1.08-2.93,2.44-3.26,4.77-6.03,42.72-26.58,76.82-61.65,101.86-21.72,15.5-46.29,23.11-72.94,24.16-12.5,.49-24.88-.55-37.05-3.15-22.32-4.76-42.53-14.19-60.27-28.7-1.17-.95-2.42-1.8-3.64-2.7,.02-.16,.05-.32,.07-.47Z"/>
  </g>
</svg>